<?xml version="1.0" encoding="utf-8" ?>
<svg xmlns="http://www.w3.org/2000/svg" xmlns:xlink="http://www.w3.org/1999/xlink" width="1024" height="683">
	<path fill="#FEFEFE" transform="scale(0.666667 0.666992)" d="M0 0L1534.69 0C1535.54 1.34434 1535.84 2.50848 1535.91 4.09208C1536.57 18.5072 1536 33.1619 1536 47.604L1536.01 132.471L1536.01 391.421L1536.01 865.91L1536 981.169C1536 989.131 1537.19 1015.2 1535.79 1021.39C1535.57 1022.35 1535.21 1023.17 1534.69 1024L0 1024L0 0Z"/>
	<path fill="#262626" transform="scale(0.666667 0.666992)" d="M214.212 554.274C216.004 554.216 216.944 554.213 218.476 555.191C221.561 559.697 220.136 565.375 220.232 570.506C220.42 580.589 221.227 596.455 231.714 601.498C236.392 603.747 242.874 604.679 247.949 606.04C251.358 606.954 254.527 607.795 257.133 610.321C257.713 611.896 257.962 611.968 257.285 613.582C249.337 617.614 234.649 614.769 225.304 616.681C208.601 620.098 208.244 644.398 200.751 655.757C198.765 655.843 197.556 655.704 195.768 654.81C195.447 654.317 194.972 653.895 194.803 653.331C194.074 650.893 195.482 639.338 195.398 635.565C195.299 631.08 194.705 626.523 193.868 622.115C189.694 600.137 172.927 608.451 159.974 599.226C158.182 597.95 157.417 596.967 157.039 594.864C161.568 591.076 180.709 594.127 188.013 592.44C210.663 587.209 206.42 566.626 214.212 554.274Z"/>
	<path fill="#FEFEFE" transform="scale(0.666667 0.666992)" d="M213.246 577.403C216.612 580.718 215.214 591.027 217.55 595.77C221.732 604.265 230.263 606.915 238.512 609.977C233.722 609.529 228.649 609.062 223.901 610.039C214.193 612.037 210.115 619.71 205.162 627.424L203.57 630.076L202.594 630.128C199.331 624.379 200.338 616.626 197.024 610.907C194.639 606.789 188.16 604.621 186.82 600.099C188.998 597.85 193.803 598.621 196.693 597.093C201.423 594.592 210.433 585.73 211.798 580.632C212.121 579.425 212.648 578.489 213.246 577.403Z"/>
	<path fill="#262626" transform="scale(0.666667 0.666992)" d="M1271.4 391.703C1273.24 387.913 1270.95 382.128 1273.19 378.97C1274.63 376.933 1293.37 374.959 1297.9 373.056C1304.12 370.443 1309.32 366.131 1313.76 361.097C1327.45 345.538 1328.52 317.335 1334.56 310.403C1335.31 310.381 1336.22 310.316 1336.95 310.52C1338.4 310.924 1339.24 311.879 1339.85 313.18C1341.04 315.738 1341 322.037 1340 324.703C1348.25 336.38 1333.67 357.873 1365.3 379.491C1371.28 383.577 1404.75 392.172 1405.67 393.614C1405.8 393.825 1405.63 395.145 1405.63 395.165C1405.37 396.379 1404.69 397.747 1404.23 398.909C1389.14 401.558 1379.18 397.378 1361.36 402.645L1361.01 402.536C1354.94 406.04 1348.87 409.898 1344.1 415.118C1335.68 424.334 1329.46 440.197 1326.9 452.23C1325.75 457.635 1325.99 463.995 1323.85 469.097C1323.05 471.003 1321.99 471.073 1320.2 471.7C1318.37 470.809 1317.77 469.928 1317.3 467.92C1316.08 462.723 1316.53 456.541 1316.33 451.203C1315.9 439.593 1312.97 425.151 1307.16 415.037C1299.41 401.536 1285.75 395.628 1271.4 391.703Z"/>
	<path fill="#FEFEFE" transform="scale(0.666667 0.666992)" d="M1328.02 349.526C1331.06 347.032 1333.2 338.561 1333.72 334.526C1333.84 333.584 1333.73 332.708 1333.53 331.792C1336.61 336.934 1336.12 345.576 1337.38 351.521C1340.74 367.413 1349.91 378.945 1364.11 386.541C1366.59 387.866 1369.4 389.718 1372.11 390.363C1373.62 390.723 1376.42 390.742 1377.38 391.892C1373.91 394.743 1363.44 394.935 1358.72 396.17C1341.72 403.634 1334.31 415.611 1326.63 431.65C1324.95 435.164 1323.62 439.233 1320.95 442.115C1321.28 440.701 1321.65 439.161 1321.59 437.698C1320.86 421.068 1308.13 400.459 1293.84 392.532C1290.17 390.499 1283.1 389.266 1280.4 386.764C1279.49 385.925 1279.74 385.463 1279.65 384.291L1280.68 383.336C1281.6 383.445 1282.52 383.518 1283.44 383.465C1297.79 382.64 1310.45 374.696 1319.98 364.378C1323.14 360.957 1328.18 354.234 1328.02 349.526Z"/>
	<path fill="#262626" transform="scale(0.666667 0.666992)" d="M145.123 425.097C144.604 424.887 144.077 424.691 143.56 424.475C136.094 421.365 127.745 420.812 120.1 418.235C117.221 417.264 114.212 415.926 112.841 413.07C113.172 411.151 113.713 411.13 115.589 410.533C124.362 407.742 143.384 410.375 156.379 406.698C159.376 405.85 162.076 404.237 164.689 402.582C185.21 389.582 188.318 368.443 194.381 346.835C195.03 344.521 195.519 340.862 197.251 339.146C198.661 339.47 200.068 339.702 201.498 339.92C202.308 340.749 202.883 341.412 203.199 342.557C205.089 349.381 204.942 370.323 206.273 379.884L206.363 380.443C209.525 392.279 212.085 404.137 223.404 410.798C230.114 414.746 237.713 416.453 244.736 419.525C250.43 421.243 266.247 423.112 269.491 427.367C269.903 429.245 269.932 429.257 269.08 430.975C257.565 437.295 233.431 425.778 212.809 440.901C200.503 454.125 192.582 466.17 189.253 484.209C188.493 488.326 188.408 494.067 186.701 497.829C185.817 499.78 184.589 501.803 182.505 502.533C178.259 498.525 178.127 469.947 176.555 462.16C173.464 446.853 163.615 435.381 150.779 427.037L149.95 426.503L145.123 425.097Z"/>
	<path fill="#FEFEFE" transform="scale(0.666667 0.666992)" d="M149.26 419.6C146.962 418.793 142.519 417.983 141.027 416.302C143.984 415.16 148.655 415.485 152.101 414.536C168.728 409.957 183.121 399.13 190.201 383.087C192.157 378.655 193.482 369.1 196.838 366.072C198.793 368.763 198.935 373.448 199.353 376.747C201.317 392.243 205.966 406.669 219.42 415.896C222.847 418.246 227.801 421.388 231.916 422.264L244.607 425.927C233.706 426.561 220.355 426.921 211.365 433.982C202.635 441.093 195.055 449.908 189.916 459.994C188.027 463.701 187.427 468.991 184.444 471.893C181.929 466.866 182.54 458.831 180.715 453.16C175.89 438.166 164.067 427.084 150.307 420.131L149.26 419.6Z"/>
	<path fill="#010101" transform="scale(0.666667 0.666992)" d="M540.647 69.8954C550.714 71.057 561.961 70.061 572.174 70.0569L638.529 70.1701L898.519 70.3916C914.229 70.414 967.103 68.5309 978.105 72.442C981.208 75.7435 980.383 152.958 980.4 164.192L1129.39 164.726C1155.48 164.911 1211.94 162.084 1233.56 170.104C1239.64 172.356 1245.15 175.872 1247.84 181.986C1251.54 190.397 1250.53 203.641 1250.64 212.824C1251.42 275.306 1249.41 338.035 1248.01 400.503L1241.16 669.861C1240.79 682.527 1239.97 762.133 1237.41 768.607C1243.24 771.316 1249.03 776.621 1254.22 780.46L1291.25 808.183C1309.93 822.204 1428.76 909.105 1432.05 915.446C1433.29 917.505 1433.56 919.708 1433.65 922.066C1433.93 929.231 1429.85 935.825 1425.1 940.859C1418.97 947.356 1410.47 952.743 1401.57 954.215C1388.42 956.39 1373.47 955.001 1360.08 954.945L1289.93 955.009L1080.52 955.015C1048.69 955.053 1016.75 954.386 984.938 955.181L442.92 953.621L237.093 952.926L168.171 952.661C159.738 952.64 151.232 953.129 142.816 952.908Q141.667 952.882 140.521 952.798Q139.375 952.715 138.234 952.574Q137.093 952.434 135.961 952.237Q134.829 952.04 133.708 951.787Q132.587 951.534 131.48 951.226Q130.373 950.917 129.282 950.554Q128.192 950.191 127.121 949.774Q126.05 949.357 125.001 948.887Q123.952 948.417 122.928 947.896Q121.904 947.375 120.907 946.803Q119.91 946.231 118.943 945.611Q117.975 944.99 117.04 944.322Q116.105 943.654 115.204 942.941Q114.303 942.227 113.438 941.47Q112.574 940.712 111.748 939.912Q110.923 939.113 110.138 938.273C106.125 934.01 102.165 928.268 102.598 922.126C102.85 918.557 104.56 915.414 107.008 912.884C111.896 907.831 118.827 904.13 124.521 899.994C136.369 891.386 147.985 882.57 159.949 874.105L269.457 796.45Q283.629 786.49 297.675 776.352C301.695 773.441 306.742 770.426 310.172 766.896C311.615 765.412 311.378 762.662 311.439 760.708C311.981 743.171 310.419 724.9 310.021 707.32C309.289 674.99 309.073 642.556 307.63 610.257C307.016 596.521 307.625 582.753 307.174 569.014Q304.193 450.966 302.553 332.893L301.358 247.821C300.903 228.132 299.376 207.572 300.911 187.962C301.253 183.593 303.957 178.838 306.909 175.666C314.014 168.031 323.893 164.58 333.946 162.844C354.265 159.334 376.724 161.724 397.379 161.825L482.828 161.877C501.079 161.912 519.438 162.436 537.676 161.792C536.53 149.779 537.431 137.106 537.282 124.996C537.095 109.714 535.704 93.444 536.968 78.2814C537.272 74.628 537.727 72.4026 540.647 69.8954Z"/>
	<path fill="#FEFEFE" transform="scale(0.666667 0.666992)" d="M771.378 467.032C772.102 466.793 772.54 466.951 773.276 467.076C772.37 467.986 771.425 468.771 770.328 469.441C767.338 471.265 765.001 472.644 761.485 471.813L754.666 467.185C760.219 467.328 765.822 467.109 771.378 467.032Z"/>
	<path fill="#101010" transform="scale(0.666667 0.666992)" d="M669.128 746.351C675.462 746.129 682.769 747.03 688.911 746.024C688.819 747.959 689.244 750.236 687.817 751.586C683.394 751.667 678.255 750.723 674.048 749.368C673.805 749.29 673.565 749.203 673.323 749.124C671.378 748.493 670.498 747.895 669.128 746.351Z"/>
	<path fill="#FEFEFE" transform="scale(0.666667 0.666992)" d="M345.3 291.164C347.504 291.41 348.873 291.468 350.543 293.007C352.83 297.071 352.332 302.615 352.51 307.218L347.805 311.568C346.229 311.169 344.878 310.704 343.814 309.401C341.826 306.965 341.265 302.387 341.476 299.291C341.734 295.514 342.418 293.739 345.3 291.164Z"/>
	<path fill="#FEFEFE" transform="scale(0.666667 0.666992)" d="M539.256 275.311C540.484 277.307 540.207 280.659 540.327 283.027C540.54 287.239 541.724 304.906 539.384 307.493C529.944 308.724 518.969 306.141 509.418 305.545C505.531 304.826 501.486 304.609 497.551 304.223C511.365 294.48 525.82 285.576 539.256 275.311Z"/>
	<path fill="#FEFEFE" transform="scale(0.666667 0.666992)" d="M363.15 196.768C365.902 197.043 368.779 197.249 371.47 197.912C373.854 198.5 374.736 199.449 375.903 201.417C375.222 210.705 359.734 204.245 353.637 211.834C347.441 219.547 351.432 258.833 352.751 269.759C352.869 270.77 352.987 271.672 352.849 272.686C352.618 274.393 352.608 274.413 351.208 275.465C349.812 275.399 348.86 275.311 347.689 274.485C345.441 272.898 343.287 269.824 342.78 267.103C340.151 252.998 337.209 216.953 345.222 205.062C349.381 198.888 356.43 198.059 363.15 196.768Z"/>
	<path fill="#101010" transform="scale(0.666667 0.666992)" d="M626.847 388.179C636.828 387.336 647.503 387.985 657.567 387.936L722.054 387.68L904.651 386.501C904.501 386.603 904.356 386.713 904.2 386.807C902.796 387.66 901.583 387.985 899.961 388.068C891.219 388.516 882.293 388.062 873.53 388.091L824.557 388.208C809.438 388.128 794.356 389.007 779.224 388.919Q762.199 388.718 745.174 388.886C741.464 388.925 737.112 388.388 733.498 389C731.688 389.306 731.499 389.196 730.543 390.737L730.71 392.478C733.505 393.705 886.081 392.834 898.56 391.981L898.752 392.62C897.832 393.186 896.684 394.215 895.611 394.168C885.681 392.186 857.282 393.872 845.557 393.929L715.475 394.691L660.924 394.757C654.266 394.753 645.443 393.614 639.085 394.926L638.94 393.884C636.451 392.238 633.14 390.415 630.25 389.673C628.987 389.348 627.978 388.816 626.847 388.179Z"/>
	<path fill="#FEFEFE" transform="scale(0.666667 0.666992)" d="M981.487 274.112C992.3 279.341 1021.22 295.755 1029.66 303.224C1030.68 304.126 1030.68 304.079 1030.76 305.399C1025.83 310.084 1019.32 313.727 1013.64 317.482C1004.59 323.425 994.504 331.547 984.602 335.67C985.416 326.685 985.741 318.061 984.308 309.097C983.266 302.582 981.533 296.175 981.063 289.573C980.7 284.471 981.191 279.214 981.487 274.112Z"/>
	<path fill="#FEFEFE" transform="scale(0.666667 0.666992)" d="M705.841 437.692C733.047 438.967 764.141 437.763 791.732 437.537C801.453 437.458 815.422 435.908 824.553 437.919C812.978 444.986 796.804 457.528 783.627 459.423C776.406 460.462 768.556 459.953 761.245 460.077C755.325 460.177 748.386 461.334 742.583 460.341C732.42 458.6 714.451 444.051 705.841 437.692Z"/>
	<path fill="#FEFEFE" transform="scale(0.666667 0.666992)" d="M682.283 422.816C689.73 421.663 848.209 421.647 850.317 422.317C845.195 425.353 839.405 429.434 833.855 431.486C831.706 433.184 827.184 437.54 824.553 437.919C815.422 435.908 801.453 437.458 791.732 437.537C764.141 437.763 733.047 438.967 705.841 437.692L704.729 436.837C704.493 436.038 704.317 435.334 704.233 434.501C704.209 434.269 704.196 434.037 704.178 433.805Q703.548 433.873 702.915 433.918C700.173 434.1 698.692 433.786 696.623 431.936C692.43 428.518 686.846 425.965 682.283 422.816Z"/>
	<path fill="#101010" transform="scale(0.666667 0.666992)" d="M696.623 431.936C706.599 430.325 828.572 430.298 833.855 431.486C831.706 433.184 827.184 437.54 824.553 437.919C815.422 435.908 801.453 437.458 791.732 437.537C764.141 437.763 733.047 438.967 705.841 437.692L704.729 436.837C704.493 436.038 704.317 435.334 704.233 434.501C704.209 434.269 704.196 434.037 704.178 433.805Q703.548 433.873 702.915 433.918C700.173 434.1 698.692 433.786 696.623 431.936Z"/>
	<path fill="#FEFEFE" transform="scale(0.666667 0.666992)" d="M613.495 379.672C628.822 379.069 644.292 379.545 659.637 379.503L725.473 378.971L920.189 378.094C915.424 381.35 910.413 385.4 904.651 386.501L722.054 387.68L657.567 387.936C647.503 387.985 636.828 387.336 626.847 388.179C622.139 385.593 617.818 382.861 613.495 379.672Z"/>
	<path fill="#FEFEFE" transform="scale(0.666667 0.666992)" d="M639.085 394.926C645.443 393.614 654.266 394.753 660.924 394.757L715.475 394.691L845.557 393.929C857.282 393.872 885.681 392.186 895.611 394.168C883.68 400.434 873.062 408.238 861.53 415.064C841.944 414.763 822.27 415.48 802.668 415.507Q739.283 415.443 675.904 416.347C669.385 416.747 644.754 399.757 639.085 394.926Z"/>
	<path fill="#FEFEFE" transform="scale(0.666667 0.666992)" d="M390.811 252.782L389.705 250.914C400.728 249.296 424.308 250.592 436.428 250.601L539.253 250.687L539.227 263.928L538.547 264.575C526.23 276.162 493.767 290.72 486.994 303.441C484.982 307.221 484.712 311.616 484.539 315.816C484.271 322.368 484.422 328.988 484.449 335.546Q463.164 315.644 441.496 296.16C432.468 288.179 422.962 280.711 414.175 272.466L410.681 274.933C404.178 270.645 394.885 262.412 389.726 256.575C390.238 255.379 390.486 254.042 390.811 252.782Z"/>
	<path fill="#101010" transform="scale(0.666667 0.666992)" d="M390.811 252.782C399.119 258.487 406.658 265.762 414.175 272.466L410.681 274.933C404.178 270.645 394.885 262.412 389.726 256.575C390.238 255.379 390.486 254.042 390.811 252.782Z"/>
	<path fill="#FEFEFE" transform="scale(0.666667 0.666992)" d="M1157.34 250.94L1159.51 251.476L1160.03 252.557C1141.68 268.8 1121.43 283.207 1102.38 298.65L1064.06 329.66C1055.79 336.296 1047.43 343.53 1038.4 349.078C1038.45 348.888 1038.5 348.696 1038.55 348.507C1039.96 343.733 1039.52 306.681 1038.25 301.035C1037.56 297.99 1036.58 297.473 1034.08 295.952C1032.91 294.181 988.854 268.444 981.368 263.318C981.522 259.558 981.434 255.905 981.185 252.151C996.769 250.862 1012.86 251.452 1028.51 251.382Q1070.64 251.116 1112.76 251.408C1122.46 251.473 1150.02 253.007 1157.34 250.94Z"/>
	<path fill="#FEFEFE" transform="scale(0.666667 0.666992)" d="M334.887 172.137L335.327 172.106C343.639 171.575 352.229 172.094 360.574 172.168L408.296 172.473C449.504 172.498 490.989 171.41 532.157 172.505C534.278 172.561 536.408 172.327 538.024 173.75C538.733 176.894 538.333 179.882 538.027 183.053C516.449 183.606 494.761 183.075 473.173 182.903L397.846 182.652C378.355 182.541 358.383 181.606 338.942 182.827C334.764 183.089 328.019 183.02 324.817 185.803C323.817 188.022 323.553 190.354 323.43 192.759C322.754 206.014 323.57 219.663 323.642 232.968Q323.848 282.301 325.115 331.619L328.593 548.432C329.138 609.368 331.214 670.373 332.255 731.309C332.385 738.9 335.028 752.828 332.828 759.843C332.177 761.918 331.707 762.316 329.812 763.249C327.541 762.714 325.287 762.577 323.025 761.951C319.669 755.838 313.97 356.557 313.352 315.192Q312.372 268.445 311.894 221.69C311.818 208.595 311.375 195.526 311.922 182.434C313.142 180.716 314.326 178.852 315.803 177.346C320.846 172.206 328.231 172.349 334.887 172.137Z"/>
	<path fill="#FEFEFE" transform="scale(0.666667 0.666992)" d="M986.798 174.349C1007.07 174.905 1027.47 174.524 1047.75 174.568L1155.19 175.101C1176.71 175.256 1198.82 174.258 1220.24 175.915C1224.5 176.245 1230.33 176.724 1234.15 178.829C1236.48 180.113 1238.53 184.496 1239.12 187.009C1240.99 195.041 1239.77 217.787 1239.75 226.888Q1239.7 281.575 1238.7 336.253Q1236.36 477.442 1231.92 618.581L1229.4 710.041C1228.99 725.409 1229.09 740.913 1228.18 756.25C1228.06 758.401 1227.87 759.934 1226.76 761.821L1227.03 763.634C1224.55 765.241 1218.12 764.454 1215.14 764.403C1215.96 763.033 1216.23 761.854 1216.31 760.266C1216.93 747.71 1216.79 735.04 1217.17 722.464L1219.99 619.2L1225.82 382.234L1228.14 262.543Q1228.67 239.682 1227.99 216.825C1227.85 210.94 1228.25 204.67 1227.44 198.859C1226.91 195.001 1225.35 190.722 1221.99 188.467C1219.22 186.611 1215.3 186.711 1212.09 186.582C1191.29 185.748 1170.39 186.154 1149.58 186.194Q1108.51 186.272 1067.44 185.923L1012.53 185.495C1002.2 185.419 991.022 184.482 980.835 186.049C980.901 182.582 980.056 179.092 981.377 175.791C983.221 174.303 984.535 174.523 986.798 174.349Z"/>
	<path fill="#FEFEFE" transform="scale(0.666667 0.666992)" d="M115.396 918.589C118.864 914.603 124.897 912.663 128.979 909.025C169.433 910.447 210.231 909.321 250.728 909.456L482.708 910.24L1164.79 912.635Q1244.42 913.414 1324.05 913.112C1352.15 913.258 1380.41 914.051 1408.51 913.583C1409.56 913.565 1410.5 913.372 1411.4 912.774C1415.36 914.425 1418.5 917.585 1420.4 921.45C1420.45 921.558 1420.47 921.681 1420.5 921.796L1422.29 922.784C1422.35 923.002 1422.41 923.218 1422.45 923.439C1422.87 925.693 1420.75 928.842 1419.49 930.647C1414.47 937.845 1406.57 943.027 1397.88 944.465C1386.75 946.305 1373.34 945.059 1362 945.042L1288.14 944.819L1026.15 944.514L311.979 942.775C255.269 942.34 198.461 943.219 141.769 942.302C135.295 942.197 128.283 939.808 123.038 936.026C118.449 932.717 113.477 927.969 112.526 922.144C113.175 919.867 113.387 919.902 115.396 918.589Z"/>
	<path fill="#101010" transform="scale(0.666667 0.666992)" d="M115.396 918.589C118.864 914.603 124.897 912.663 128.979 909.025C169.433 910.447 210.231 909.321 250.728 909.456L482.708 910.24L482.178 911.296C479.086 911.59 471.024 910.86 468.782 912.361C469.017 914.068 469.031 914.949 470.522 916.102C470.952 916.434 471.125 916.49 471.571 916.695L469.915 917.391L239.142 916.986L167.126 916.704C150.088 916.667 132.178 915.486 115.396 918.589Z"/>
	<path fill="#262626" transform="scale(0.666667 0.666992)" d="M482.708 910.24L1164.79 912.635Q1244.42 913.414 1324.05 913.112C1352.15 913.258 1380.41 914.051 1408.51 913.583C1409.56 913.565 1410.5 913.372 1411.4 912.774C1415.36 914.425 1418.5 917.585 1420.4 921.45C1420.45 921.558 1420.47 921.681 1420.5 921.796Q1340.68 919.945 1260.83 920.378L1117.45 920.187L707.253 918.538L552.82 917.968C525.285 917.858 497.411 918.547 469.915 917.391L471.571 916.695C471.125 916.49 470.952 916.434 470.522 916.102C469.031 914.949 469.017 914.068 468.782 912.361C471.024 910.86 479.086 911.59 482.178 911.296L482.708 910.24Z"/>
	<path fill="#FEFEFE" transform="scale(0.666667 0.666992)" d="M1029.99 316.144C1030.49 316.557 1030.88 317.196 1031.27 317.711C1032.13 330.364 1031.95 343.076 1032.4 355.748Q1034.52 423.152 1035.36 490.584L1037.53 588.965C1037.97 607.148 1038.93 625.504 1038.68 643.683C1038.65 645.779 1038.55 647.302 1037.59 649.198C1033.46 641.685 903.462 559.452 888.395 549.653C850.804 526.094 814.543 499.668 776.169 477.437C787.246 471.45 797.862 464.076 808.646 457.513Q849.598 432.708 889.937 406.918C936.803 377.138 984.525 348.055 1029.99 316.144Z"/>
	<path fill="#FEFEFE" transform="scale(0.666667 0.666992)" d="M494.108 312.818C501.8 319.022 511.116 324.086 519.523 329.339L569.344 360.396C608.524 385.286 647.25 411.035 686.151 436.37C707.679 450.39 729.983 463.643 751.06 478.298C716.495 502.33 680.587 524.464 645.815 548.237C632.438 556.065 619.581 565.37 606.654 573.936L535.445 620.965C523.036 629.15 510.589 638.644 497.483 645.603L496.722 644.741C495.86 642.081 492.154 322.99 494.108 312.818Z"/>
	<path fill="#FEFEFE" transform="scale(0.666667 0.666992)" d="M764.171 480.523C773.403 483.995 783.172 491.977 791.515 497.431L844.833 532.353C894.603 565.003 945.266 596.357 994.836 629.303C999.706 632.539 1026.78 649.516 1028.66 652.984C1017.94 653.906 1006.76 653.325 995.979 653.332L936.787 653.359L769.27 653.687L583.35 654.259Q556.872 654.262 530.395 653.975C520.786 653.839 511.13 653.206 501.525 653.485C511.642 644.913 523.838 637.741 534.965 630.502Q558.644 615.11 582.131 599.427L651.734 553.953C688.854 529.178 726.021 503.671 764.171 480.523Z"/>
	<path fill="#262626" transform="scale(0.666667 0.666992)" d="M698.323 540.466L702.289 542.658C695.736 549.111 687.599 554.439 680.21 559.931C668.556 568.595 656.93 577.555 644.721 585.421L644.977 586.163L644.579 585.494L643.355 585.549C649.279 579.996 656.038 575.003 662.336 569.841L698.323 540.466Z"/>
	<path fill="#101010" transform="scale(0.666667 0.666992)" d="M698.323 540.466C716.43 526.191 735.059 510.646 755.248 499.428C747.518 506.881 710.601 538.835 702.289 542.658L698.323 540.466Z"/>
	<path fill="#FEFEFE" transform="scale(0.666667 0.666992)" d="M546.615 80.4433C563.165 79.4897 580.095 80.1937 596.681 80.2106L688.193 80.2764L971.268 80.3667L972.847 277.422C973.008 299.285 973.636 321.129 973.519 342.996C968.702 347.041 962.767 350.236 957.46 353.653C948.366 359.51 939.398 365.508 930.094 371.034C907.086 372.622 883.522 371.839 860.437 371.892L602.902 372.845C585.044 360.857 567.433 348.588 549.809 336.258C548.91 317.299 549.367 298.033 549.194 279.046L548.045 147.464C547.692 126.817 548.372 105.702 546.354 85.1592C554.766 98.0366 570.157 111.207 581.361 122.069C588.161 128.661 594.656 135.548 601.606 141.987L601.663 141.6C592.372 129.716 581.711 118.836 571.706 107.551C564.017 98.8786 555.778 87.3903 546.615 80.4433Z"/>
	<path fill="#262626" transform="scale(0.666667 0.666992)" d="M761.777 112.848C773.257 111.922 785.597 116.302 794.687 123.146Q795.598 123.829 796.473 124.556Q797.349 125.284 798.187 126.055Q799.024 126.825 799.823 127.637Q800.621 128.449 801.377 129.3Q802.134 130.15 802.846 131.038Q803.559 131.926 804.227 132.848Q804.894 133.77 805.514 134.725Q806.135 135.679 806.707 136.664Q807.278 137.649 807.8 138.66Q808.321 139.672 808.792 140.709Q809.262 141.746 809.679 142.805Q810.097 143.864 810.461 144.943Q810.825 146.022 811.134 147.118Q811.444 148.213 811.698 149.323Q811.952 150.433 812.15 151.554Q812.348 152.675 812.49 153.805Q812.626 154.934 812.707 156.069Q812.788 157.204 812.813 158.341Q812.838 159.479 812.808 160.616Q812.778 161.753 812.692 162.888Q812.606 164.022 812.464 165.151Q812.323 166.28 812.126 167.4Q811.93 168.521 811.679 169.631Q811.428 170.74 811.123 171.836Q810.818 172.932 810.46 174.012Q810.102 175.092 809.691 176.153Q809.28 177.214 808.818 178.253Q808.356 179.293 807.844 180.309Q807.332 181.324 806.77 182.314Q806.209 183.303 805.6 184.264Q804.991 185.225 804.335 186.155Q803.68 187.084 802.98 187.981C794.13 199.23 783.381 204.317 769.424 206.01C769.106 206.061 768.788 206.118 768.469 206.164C757.332 207.766 744.532 203.331 735.779 196.564Q734.844 195.842 733.945 195.076Q733.046 194.309 732.186 193.499Q731.327 192.688 730.508 191.837Q729.689 190.985 728.913 190.094Q728.137 189.203 727.406 188.275Q726.675 187.347 725.99 186.384Q725.306 185.421 724.669 184.426Q724.033 183.43 723.447 182.404Q722.86 181.379 722.325 180.325Q721.79 179.272 721.307 178.193Q720.825 177.115 720.396 176.014Q719.967 174.913 719.593 173.792Q719.218 172.672 718.9 171.534Q718.581 170.396 718.319 169.244Q718.057 168.092 717.852 166.928Q717.647 165.764 717.5 164.592C715.935 152.266 719.151 139.331 726.908 129.555C735.905 118.216 747.918 114.319 761.777 112.848Z"/>
	<path fill="#FEFEFE" transform="scale(0.666667 0.666992)" d="M760.856 120.313C769.574 120.042 778.014 121.59 785.553 126.106Q786.425 126.64 787.269 127.216Q788.114 127.791 788.93 128.408Q789.746 129.024 790.53 129.679Q791.315 130.334 792.067 131.027Q792.819 131.719 793.537 132.448Q794.254 133.176 794.935 133.938Q795.616 134.701 796.26 135.495Q796.903 136.29 797.507 137.115Q798.11 137.94 798.674 138.793Q799.237 139.646 799.757 140.526Q800.278 141.406 800.756 142.31Q801.233 143.214 801.666 144.14Q802.099 145.067 802.486 146.013Q802.874 146.959 803.214 147.923Q803.555 148.887 803.849 149.866Q804.142 150.846 804.388 151.838C806.716 161.536 804.56 172.004 799.289 180.396C792.631 190.997 782.874 195.945 771.029 198.684C759.425 199.025 749.142 198.033 739.785 190.358Q738.993 189.705 738.233 189.015Q737.474 188.324 736.749 187.597Q736.024 186.87 735.336 186.109Q734.648 185.347 733.997 184.553Q733.347 183.758 732.737 182.933Q732.126 182.108 731.557 181.254Q730.987 180.4 730.46 179.519Q729.933 178.638 729.45 177.732Q728.966 176.826 728.528 175.898Q728.09 174.97 727.697 174.021Q727.305 173.072 726.959 172.106Q726.614 171.139 726.316 170.157Q726.018 169.174 725.768 168.178Q725.519 167.182 725.318 166.176Q725.118 165.169 724.967 164.153Q724.816 163.138 724.715 162.116Q724.623 161.158 724.578 160.196Q724.534 159.234 724.538 158.271Q724.541 157.308 724.593 156.347Q724.644 155.386 724.744 154.428Q724.843 153.47 724.99 152.519Q725.137 151.567 725.332 150.624Q725.526 149.681 725.767 148.749Q726.008 147.817 726.296 146.898Q726.583 145.979 726.915 145.076Q727.248 144.172 727.625 143.286Q728.003 142.401 728.424 141.535Q728.845 140.669 729.308 139.825Q729.772 138.981 730.277 138.162Q730.782 137.342 731.328 136.549Q731.873 135.756 732.457 134.99Q733.041 134.225 733.663 133.49C740.566 125.274 750.328 121.215 760.856 120.313Z"/>
	<path fill="#010101" transform="scale(0.666667 0.666992)" d="M787.663 136.531C787.854 136.517 788.045 136.495 788.236 136.488C790.471 136.403 792.838 136.396 794.495 138.163C795.575 139.314 796.044 140.516 795.951 142.069C795.475 150.043 771.717 169.164 765.454 174.565C762.884 176.781 758.122 180.897 754.556 180.618C748.371 177.964 743.465 170.418 739.271 165.367C735.84 161.49 732.528 158.262 732.719 152.647C732.788 150.608 733.242 149.839 734.64 148.465C735.596 148.216 736.429 148.095 737.404 148.349C744.806 150.275 752.036 161.496 755.898 167.826C767.342 158.585 776.363 146.025 787.663 136.531Z"/>
	<path fill="#101010" transform="scale(0.666667 0.666992)" d="M632.486 239.726C658.494 240.442 684.807 239.473 710.85 239.429L855.58 239.509Q884.993 239.365 914.405 239.517C922.362 239.524 930.749 238.732 938.643 239.313C941.691 239.538 945.003 240.313 947.509 242.12C949.424 243.501 950.88 245.61 951.05 248.009C951.237 250.634 950.041 253.221 948.246 255.083C947.105 256.267 945.65 257.382 944.049 257.835C935.552 260.236 907.172 258.662 896.625 258.597C831.184 259.857 765.63 259.584 700.177 259.918L624.553 260.362C612.299 260.403 599.817 260.931 587.591 260.346C585.144 260.229 582.408 259.982 580.385 258.463C577.771 256.499 576.128 253.107 575.822 249.888C575.607 247.622 576.163 245.548 577.772 243.894C579.972 241.631 583.28 240.689 586.322 240.235C592.718 239.279 599.814 239.925 606.278 239.995Q619.385 240.186 632.486 239.726Z"/>
	<path fill="#FEFEFE" transform="scale(0.666667 0.666992)" d="M784.671 245.718C792.732 246.746 802.043 245.922 810.245 245.973C824.272 246.059 940.725 245.546 943.456 247.02C944.25 247.449 944.29 248.299 944.572 249.093L943.768 250.571C941.749 251.605 939.743 251.981 937.505 252.13C931.675 252.517 925.682 252.092 919.828 252.105L884.331 252.318C837.227 252.448 789.745 251.554 742.683 253.283L638.158 253.66C620.716 253.739 602.491 255.151 585.15 253.685C584.388 253.62 583.694 252.416 583.192 251.823C582.832 250.006 582.516 249.736 583.487 248.086C592.145 243.549 755.498 248.019 784.671 245.718Z"/>
	<path fill="#101010" transform="scale(0.666667 0.666992)" d="M846.187 325.24C854.767 326.295 864.495 325.43 873.168 325.355L922.185 325.221C929.024 325.207 936.582 324.567 943.319 325.556C945.238 325.838 947.009 326.405 948.556 327.608C950.954 329.472 951.917 332.411 952.166 335.344C952.435 338.527 951.559 341.99 949.273 344.309C947.318 346.295 945.222 346.922 942.533 347.207C930.086 348.525 917.17 347.8 904.665 347.81L846.531 347.975L688.009 348.428L621.972 348.704C611.704 348.773 600.254 349.893 590.145 348.521C586.507 348.027 582.388 346.759 579.492 344.43C577.726 343.01 576.446 341.108 576.4 338.785C576.336 335.512 579.318 331.376 581.547 329.107C583.197 327.428 585.334 326.688 587.651 326.468C595.051 325.766 603.23 326.501 610.71 326.504L659.201 326.321L772.154 325.608C796.776 325.527 821.591 326.138 846.187 325.24Z"/>
	<path fill="#FEFEFE" transform="scale(0.666667 0.666992)" d="M864.063 332.005C871.023 332.639 878.356 332.15 885.356 332.133L921.389 332.132C927.393 332.084 934.152 331.208 940.074 332.157C942.844 332.601 943.945 333.328 945.479 335.493C945.375 337.769 945.274 338.057 943.939 339.904C941.843 341.093 939.813 341.345 937.447 341.412C928.776 341.657 919.869 341.076 911.168 340.984Q886.909 340.8 862.649 340.954L681.937 341.59C671.356 341.945 591.601 343.392 586.862 341.269C584.914 340.397 584.399 339.745 583.541 337.856L584.148 336.244C586.845 333.887 589.859 333.37 593.315 333.109C600.616 332.559 608.202 333.385 615.539 333.373L664.266 333.059L788.115 332.386C813.387 332.305 838.816 332.905 864.063 332.005Z"/>
	<path fill="#101010" transform="scale(0.666667 0.666992)" d="M685.658 283.096L686.132 283.136C704.093 284.49 723.161 282.741 741.23 282.698L883.561 281.724Q904.414 281.64 925.265 281.932C929.729 281.955 935.171 281.069 939.511 281.794C942.575 282.305 945.701 283.972 947.761 286.306C950.034 288.883 950.656 291.918 950.255 295.266C949.898 298.242 948.61 300.626 946.145 302.374C943.014 304.595 939.877 304.794 936.172 304.901C908.883 305.687 881.468 305.276 854.163 305.312L697.367 305.64L618.834 306.471C608.346 306.549 593.265 308.098 583.347 305.822C580.443 305.156 577.985 303.216 576.457 300.669Q576.179 300.21 575.949 299.726Q575.718 299.241 575.538 298.736Q575.358 298.231 575.23 297.71Q575.101 297.189 575.026 296.658Q574.951 296.127 574.93 295.591Q574.909 295.055 574.942 294.519Q574.975 293.984 575.062 293.454Q575.149 292.925 575.289 292.407C576.118 289.28 578.264 286.812 581.158 285.413C586.424 282.866 672.46 283.027 682.499 283.505L685.658 283.096Z"/>
	<path fill="#FEFEFE" transform="scale(0.666667 0.666992)" d="M686.313 289.717L885.676 288.927C901.306 288.975 917.085 287.897 932.698 288.486C935.371 288.587 938.664 288.761 941.123 289.905C943.063 290.809 943.495 291.466 944.269 293.388C943.856 295.205 943.344 295.811 941.944 297.017C933.871 299.608 900.184 298.143 889.595 298.209L744.581 298.644C694.172 298.753 643.688 300.055 593.297 299.757C590.328 299.739 586.953 299.799 584.094 298.864C582.107 298.214 581.476 297.781 580.543 295.976C580.811 294.3 581.625 293.359 582.804 292.154C583.584 291.357 583.973 291.092 585.091 290.93C595.517 289.421 607.432 290.51 618.014 290.41C638.923 290.214 659.813 289.578 680.726 289.734L686.313 289.717Z"/>
	<path fill="#FEFEFE" transform="scale(0.666667 0.666992)" d="M321.504 772.442C357.825 773.422 394.139 773.007 430.467 773.064L562.87 773.672L955.034 775.537L1142.89 775.528C1171.34 775.565 1200.24 774.372 1228.65 775.443C1236.05 778.719 1243.62 785.743 1250.19 790.648L1298.05 826.753C1326.71 848.224 1355.88 869.001 1384.25 890.848C1393.16 897.706 1402.47 904.266 1411.01 911.567L1411.4 912.774C1410.5 913.372 1409.56 913.565 1408.51 913.583C1380.41 914.051 1352.15 913.258 1324.05 913.112Q1244.42 913.414 1164.79 912.635L482.708 910.24L250.728 909.456C210.231 909.321 169.433 910.447 128.979 909.025C148.834 895.979 167.739 881.455 187.081 867.666L270.757 808.729C287.299 796.937 304.299 782.868 321.504 772.442Z"/>
	<path fill="#010101" transform="scale(0.666667 0.666992)" d="M1198.61 803.469C1203.67 805.278 1230.76 825.001 1236.59 829.908C1238.91 831.855 1241.91 834.389 1242.16 837.527C1241.93 837.739 1241.71 837.963 1241.47 838.164C1238.61 840.55 1232.08 839.451 1228.5 839.407L581.347 837.035L367.229 835.881Q334.473 835.821 301.719 835.404C295.515 835.289 288.488 836.139 282.462 835.467C278.633 835.04 273.381 835.977 269.863 834.339C268.36 833.639 268.391 833.207 267.923 831.737C268.568 829.359 269.804 827.897 271.557 826.24C277.535 820.587 306.485 801.249 314.008 799.883C324.176 798.036 336.275 799.407 346.629 799.449L431.935 800.362L651.001 801.205L755.222 801.612C765.916 801.548 776.53 802.16 787.216 801.785C789.719 801.697 790.041 803.904 792.603 803.965C792.938 803.424 792.868 803.463 793.438 802.965C795.019 801.583 798.202 801.509 800.204 801.41C810.551 800.899 821.263 801.786 831.658 801.891C844.014 802.016 857.736 801.005 869.893 802.73C870.045 802.751 870.196 802.776 870.348 802.8C876.366 801.003 888.308 800.887 894.466 802.258C904.275 801.406 914.295 802.373 924.154 802.25C957.229 801.836 990.313 802.617 1023.39 802.39C1028.35 802.055 1036.07 801.48 1040.78 802.765C1049.99 801.895 1059.93 802.631 1069.21 802.645Q1097.32 802.599 1125.42 802.936C1149.71 803.243 1174.38 801.909 1198.61 803.469Z"/>
	<path fill="#FEFEFE" transform="scale(0.666667 0.666992)" d="M669.128 746.351C650.12 744.61 629.811 745.976 610.682 745.844L453.908 745.354L396.294 744.852C391.762 744.785 387.11 745.659 382.605 745.297C380.827 745.154 378.931 744.796 377.509 743.646C375.82 742.281 375.199 739.984 375.11 737.887C374.997 735.198 376.264 733.66 377.991 731.763C384.041 725.118 392.677 720.078 399.791 714.576C408.583 707.775 417.071 700.479 425.48 693.213C428.88 690.274 433.94 686.554 436.435 682.915C436.564 682.728 436.622 682.501 436.715 682.293L437.125 682.142C431.775 682.246 381.82 725.841 373.93 725.65C372.792 722.905 374.31 720.163 374.122 717.305C372.881 698.359 372.477 678.668 373.03 659.654L373.577 632.408C373.661 629.389 374.32 625.991 374.071 623.022C373.975 621.886 373.308 620.76 372.772 619.776C372.219 618.763 373.878 612.205 374.132 610.496L373.371 611.621L373.646 609.785C372.684 609.613 372.203 609.335 371.417 608.762C373.283 607.834 373.616 607.673 374.691 605.911C374.86 603.492 373.181 601.624 371.922 599.677C371.851 599.568 371.778 599.46 371.706 599.352C371.955 596.804 372.72 596.169 374.311 594.149C373.912 585.359 374.791 576.86 374.726 568.096C374.656 558.745 373.634 549.057 373.939 539.778C374.043 536.585 375.547 533.47 375.546 530.362C375.545 528.013 373.648 526.32 373.694 523.873C373.871 514.395 377.513 502.845 373.369 494.018C372.955 493.136 372.783 492.65 372.888 491.64L375.36 492.194C375.446 491.874 375.239 450.562 375.134 448.037C375.012 445.093 373.632 439.667 374.149 437.037C374.265 436.445 375.313 435.705 375.443 435.108C376.478 430.383 375.27 420.672 375.229 415.426L374.992 359.611C374.954 354.276 375.883 349.057 375.997 343.774C376.07 340.404 374.65 336.961 374.854 333.594C375.001 331.159 376.358 328.917 376.413 326.547C376.67 315.505 375.815 304.054 375.685 292.959C375.611 286.648 374.089 263.565 375.034 259.815C375.422 258.277 375.544 257.019 375.466 255.44C375.412 254.335 375.218 253.255 375.653 252.202C376.312 250.607 376.759 250.618 378.257 249.972C382.916 250.291 386.478 253.55 389.726 256.575C394.885 262.412 404.178 270.645 410.681 274.933C435.032 296.713 460.046 317.731 484.637 339.238L486.789 557.381Q487.33 588.26 487.352 619.143C487.331 632.526 486.468 646.471 487.636 659.787C495.022 663.562 575 661.766 588.311 661.719L931.445 660.477L1007.4 660.545C1019.07 660.52 1033.08 662.323 1044.34 659.266C1046.66 656.513 1046.31 650.016 1046.34 646.4C1046.52 626.759 1045.33 606.951 1044.8 587.307L1042.5 485.81L1040.71 402.424C1040.4 386.896 1040.86 370.868 1039.49 355.411C1039.38 354.225 1039.16 353.612 1038.6 352.587C1046.61 347.921 1053.96 341.366 1061.23 335.604L1097.77 306.45L1138.69 273.611C1147.05 266.941 1155.67 260.59 1163.65 253.453C1164.36 252.826 1164.89 252.099 1165.14 251.177C1168.19 251.2 1172.82 250.668 1175.63 251.648C1179.16 264.644 1173.53 285.853 1177.79 301.814C1176.45 305.426 1175.23 308.51 1175.37 312.398C1176.16 333.548 1175.1 354.819 1174.88 375.966L1174.12 480.116L1173.34 596.501C1173.28 633.433 1173.76 670.677 1172.49 707.579C1172.44 709.144 1172.22 709.831 1171.29 711.091C1173.72 713.697 1174.51 719.079 1174.34 722.704C1174.3 723.628 1174.17 724.53 1174.03 725.442C1173.98 725.746 1173.94 726.052 1173.89 726.355C1173.49 728.641 1171.82 731.965 1169.81 733.243C1169.55 733.403 1169.29 733.54 1169.03 733.688C1170.97 735.106 1172.41 736.559 1172.66 739.084C1172.77 740.183 1172.5 740.976 1172.1 741.977C1171.35 743.885 1171.58 746.035 1171.63 748.053C1169.96 749.389 1157.2 748.414 1154.24 748.122C1143.86 748.474 1129.27 745.781 1119.48 748.837C1116.69 747.105 1050.47 748.147 1041.69 748.14C1013.01 748.12 984.255 746.868 955.54 746.807L904.224 746.572C890.151 746.632 875.995 747.105 861.933 746.565C854.022 746.329 846.075 746.498 838.16 746.522C811.636 747.158 784.924 746.216 758.381 746.03C747.716 745.956 737.096 746.609 726.441 746.696C713.947 746.798 701.404 746.305 688.911 746.024C682.769 747.03 675.462 746.129 669.128 746.351Z"/>
	<path fill="#262626" transform="scale(0.666667 0.666992)" d="M1169.03 733.688C1167.36 732.233 1165.43 730.751 1163.98 729.089C1162.68 727.595 1162.14 725.837 1160.6 724.457C1146.79 712.075 1132.89 699.875 1119.43 687.065L1119.77 686.383C1122.72 686.722 1125.33 687.483 1128.14 688.373C1127.96 689.601 1127.74 689.76 1128.67 690.704C1131.47 693.54 1136.03 695.814 1139.26 698.304C1146.44 703.831 1167.65 721.248 1171.4 728.926C1171.76 728.274 1171.94 728.033 1172.16 727.371C1173.47 723.525 1172.83 714.762 1171.29 711.091C1173.72 713.697 1174.51 719.079 1174.34 722.704C1174.3 723.628 1174.17 724.53 1174.03 725.442C1173.98 725.746 1173.94 726.052 1173.89 726.355C1173.49 728.641 1171.82 731.965 1169.81 733.243C1169.55 733.403 1169.29 733.54 1169.03 733.688Z"/>
	<path fill="#262626" transform="scale(0.666667 0.666992)" d="M432.325 673.739L463.48 648.42C468.225 644.492 472.961 639.159 478.304 636.235C468.857 649.109 445.655 667.933 433.086 678.794C417.709 691.661 401.857 704.025 383.958 713.201L383.549 712.506C387.511 708.147 393.025 704.766 397.677 701.14C409.265 692.104 421.215 683.356 432.325 673.739Z"/>
</svg>
