<?xml version="1.0" encoding="utf-8" ?>
<svg xmlns="http://www.w3.org/2000/svg" xmlns:xlink="http://www.w3.org/1999/xlink" width="1024" height="683">
	<path fill="#FEFEFE" transform="matrix(0.666667 0 0 0.666992 0 -6.10352e-05)" d="M0 0L1534.69 0C1535.54 1.34434 1535.84 2.50848 1535.91 4.09208C1536.57 18.5072 1536 33.1619 1536 47.604L1536.01 132.471L1536.01 391.421L1536.01 865.91L1536 981.169C1536 989.131 1537.19 1015.2 1535.79 1021.39C1535.57 1022.35 1535.21 1023.17 1534.69 1024L0 1024L0 0Z"/>
	<path fill="#1E1E1E" transform="matrix(0.666667 0 0 0.666992 0 -6.10352e-05)" d="M724.507 42.3247C724.649 42.3079 724.791 42.2858 724.933 42.2743C755.08 39.8617 793.421 46.2427 817.109 65.8341C822.345 60.5501 827.438 55.7921 834.044 52.2039C851.905 42.502 875.063 41.3406 894.436 47.0424C911.111 51.9501 923.201 60.8216 931.436 76.0666C940.891 69.7601 950.761 67.6355 962.049 67.821C980.439 68.1231 1006.62 74.2852 1019.73 87.9162C1028.15 81.2379 1037.23 79.0415 1047.93 80.1414C1062.49 81.6399 1075.69 90.4353 1084.68 101.73C1093.28 112.527 1096.58 125.6 1094.92 139.277C1094.12 145.874 1091.3 154.039 1085.88 158.23Q1088.02 158.199 1090.16 158.302Q1092.3 158.404 1094.43 158.64Q1096.56 158.876 1098.67 159.243Q1100.78 159.611 1102.86 160.11Q1104.95 160.609 1107 161.237Q1109.04 161.864 1111.05 162.618Q1113.06 163.372 1115.01 164.25Q1116.96 165.127 1118.86 166.125Q1120.04 166.767 1121.18 167.466Q1122.33 168.165 1123.44 168.919Q1124.55 169.672 1125.62 170.479Q1126.69 171.286 1127.72 172.143Q1128.75 173.001 1129.74 173.907Q1130.73 174.814 1131.67 175.768Q1132.61 176.721 1133.51 177.72Q1134.41 178.718 1135.25 179.758Q1136.1 180.799 1136.89 181.879Q1137.69 182.96 1138.43 184.078Q1139.17 185.195 1139.86 186.348Q1140.54 187.5 1141.17 188.685Q1141.8 189.869 1142.37 191.083Q1142.95 192.296 1143.46 193.536Q1143.97 194.776 1144.42 196.039Q1144.87 197.302 1145.26 198.586C1150.33 215.489 1146.53 236.59 1138.29 252.023C1135.6 257.073 1130.82 260.836 1126.66 264.683C1127.29 265.928 1129.29 266.444 1130.62 266.982C1131.1 267.177 1131.59 267.35 1132.06 267.567C1140.36 271.384 1146.57 281.076 1149.76 289.273C1158.63 312.124 1158.59 358.824 1141.69 377.716C1137.41 382.506 1123.8 390.237 1121.91 394.615C1121.9 397.39 1123.02 399.305 1124.78 401.378C1128.71 406.004 1134.14 409.859 1138.74 413.865C1149.39 423.148 1159.56 434.8 1165.91 447.496C1174.13 463.921 1174 480.525 1168.21 497.768C1162.8 513.851 1151.28 531.401 1135.86 539.141C1146.74 543.263 1156.13 553.4 1161.84 563.29C1173.43 583.389 1175.83 606.732 1169.78 628.993C1163.34 652.662 1147.12 676.158 1125.68 688.455C1126.62 688.933 1126.26 688.705 1127.06 689.269C1139.52 697.984 1150.68 694.993 1163.07 708.213C1172.33 718.096 1179.78 736.549 1179.39 749.958C1179.03 762.037 1178 797.166 1172.34 806.1C1167.75 813.336 1158.97 820.256 1152.71 826.157C1160.06 830.347 1163.15 834.218 1168.38 840.653C1178.2 842.861 1201.36 840.77 1212.48 840.686Q1254.97 840.382 1297.45 840.79C1308.96 840.825 1320.57 840.155 1332.05 840.523C1335.03 840.619 1336.3 840.752 1338.34 842.929C1339.4 850.988 1326.01 850.805 1322.67 855.987C1322.85 857.716 1322.92 859.07 1322.54 860.771C1317.81 865.983 1288.06 879.177 1279.82 881.002C1282.31 879.957 1284.71 878.81 1286.99 877.36C1292.85 873.635 1324.11 851.685 1325.19 846.899C1322.91 848.052 1320.23 848.494 1317.85 849.631C1303.92 856.283 1276.13 870.8 1261.57 873.528C1268.52 870.297 1293.2 854.607 1297.01 848.907C1294.34 848.485 1291.66 848.509 1288.95 848.472C1276.81 864.589 1237.06 884.003 1217.89 894.666C1212.96 897.409 1205.44 900.393 1201.38 904.191C1202.71 906.692 1203.7 908.442 1202.91 911.24C1196.85 917.748 1131.34 950.227 1119.15 955.322C1112.19 958.229 1105.53 960.462 1098.08 961.716C1104.95 958.865 1111.1 953.893 1117.21 949.717C1125.47 944.078 1133.73 938.519 1142.33 933.418C1154.32 926.314 1175.18 917.453 1185.04 910.104C1184.73 909.523 1184.92 909.729 1184.33 909.329C1183.7 908.902 1183.04 908.51 1182.44 908.039C1180.78 906.74 1180.51 906.475 1180.27 904.379C1181.2 902.596 1182.25 901.47 1183.86 900.282C1188.49 896.88 1194.1 894.091 1198.99 890.981Q1224.95 874.666 1251.41 859.179C1256.96 855.958 1264.18 853.118 1269.04 849.111L1268.32 848.449C1266.31 848.426 1264.02 848.278 1262.16 849.138C1254.39 852.731 1246.96 857.851 1239.19 861.688C1227.61 867.4 1214.7 871.377 1202.39 875.233C1215.62 867.815 1227.9 859.514 1239.96 850.33C1238.27 849.922 1235.53 850.302 1233.73 850.3C1221.44 857.647 1207.88 863.158 1195.39 870.239C1184.37 876.485 1173.77 883.475 1162.8 889.804C1149.64 897.393 1135.95 904.247 1122.36 911.027C1114.26 915.067 1105.41 920.098 1096.67 922.398C1107.17 918.045 1122.26 904.491 1132.46 897.383C1143.32 889.818 1154.86 883.009 1166.12 876.061C1175.6 870.215 1185.16 864.028 1195.17 859.125C1201.02 856.256 1208.42 855.348 1213.68 851.472C1214.69 849.52 1215.17 849.219 1214.69 847.009L1213.04 846.059C1209.48 845.827 1206.36 846.588 1203.18 848.133C1193.54 852.823 1184.09 859.959 1174.77 865.459C1149.9 880.123 1124.13 894.183 1098.46 907.384C1085.65 913.969 1072.37 921.52 1058.58 925.73L1057.85 925.951C1064.34 928.785 1110.76 969.897 1114.2 975.414C1115.21 977.026 1114.78 978.241 1114.38 979.911C1105.47 983.404 1027.49 978.959 1011.98 978.871L623.943 977.449L475.146 978.929Q459.817 978.97 444.493 979.403C438.411 979.56 431.575 980.402 425.559 979.528C423.988 978.326 423.987 978.373 423.568 976.446C425.598 970.013 436.131 963.802 441.375 959.634Q463.382 942.227 484.725 924.012C461.099 933.641 437.163 941.716 413.159 950.299C404.34 953.453 395.744 957.177 386.921 960.324C394.714 953.424 405.888 948.303 414.899 942.915C433.267 931.933 451.432 921.063 470.36 911.03C486.195 902.636 502.457 895.103 518.232 886.578C509.55 888.764 501.246 892.737 492.92 896.004C475.225 902.948 457.819 909.946 440.518 917.851C431.73 921.867 418.767 929.012 409.656 931.255C407.392 931.812 405.423 932.006 403.367 930.85C405.245 921.451 448.937 899.454 457.616 891.619L458.21 891.073C438.022 897.036 418.19 903.547 398.59 911.25C389.13 914.968 375.958 923.407 366.487 925.029L366.265 924.414C370.485 919.876 376.545 916.358 381.567 912.716L414.558 889.141C421.753 884.052 429.372 879.4 435.749 873.277C409.145 884.222 384.041 899.438 358.479 912.622C351.226 916.363 341.629 922.917 333.661 924.502L333.062 923.579C337.642 913.958 412.274 863.194 425.436 855.158C421.667 855.209 417.968 855.201 414.211 854.884C406.153 862.683 394.385 868.455 384.765 874.274Q340.656 901.461 294.346 924.697C301.69 917.257 310.2 909.81 318.633 903.631C325.835 898.353 334.237 893.383 340.561 887.103C329.94 891.673 288.068 914.352 280.943 915.421C279.74 915.601 279.757 915.579 278.802 914.881C280.828 911.369 298.742 903.935 303.892 901.384C331.476 887.72 357.888 872.659 384.057 856.509L373.887 854.904C366.989 860.808 359.081 865.166 351.279 869.737C327.6 883.611 303.794 894.759 278.117 904.401C286.958 892.37 318.413 874.673 332.49 866.789C337.21 864.145 347.345 859.94 350.574 855.779C349.103 855.53 346.758 854.78 345.341 854.893C341.826 855.172 330.1 862.93 326.468 864.933C317.557 869.848 280.902 889.862 272.316 888.972L271.718 888.034C275.897 881.289 307.005 862.265 315.401 855.934L300.686 856.066Q298.866 857.433 296.968 858.688C290.179 863.141 240.434 892.796 236.869 892.052C236.88 891.848 236.863 891.641 236.902 891.44C238.397 883.626 269.147 860.677 277.054 855.111C273.814 855.392 270.549 855.454 267.301 855.639C261.461 855.972 255.286 863.591 249.935 866.362C232.958 875.155 215.336 882.374 197.557 889.344C210.758 876.921 227.475 866.714 242.553 856.668C239.123 856.593 233.536 855.818 230.343 856.812C226.405 858.037 221.044 863.355 216.896 862.499C216.273 860.526 218.387 858.977 219.247 857.061C213.481 856.035 199.252 859.358 195.817 857.442C195.748 856.636 195.454 856.169 196.095 855.545C205.426 846.457 319.985 851.004 342.53 849.104C339.116 842.934 335.729 836.979 335.766 829.687C335.813 820.56 340.822 813.869 347.105 807.798C337.878 800.741 330.042 793.278 324.04 783.242C315.522 769 313.575 751.379 317.71 735.384C323.762 711.977 340.207 700.925 359.651 689.389C352.524 685.191 345.522 679.92 339.901 673.847C331.55 664.824 326.984 653.678 327.57 641.32C328.416 623.483 339.037 606.889 353.32 596.582C360.684 591.267 368.71 586.956 375.477 580.844C364.18 570.897 353.223 564.722 345.406 551.181C335.435 533.908 331.768 513.154 336.989 493.772C342.897 471.837 358.424 456.163 377.626 445.189C371.671 442.082 366.052 437.145 361.433 432.32C348.739 419.056 343.807 404.192 344.281 385.909C345.094 354.554 367.64 327.206 389.32 306.47C374.098 292.239 361.111 279.673 358.393 257.848C355.708 236.287 363.312 214.703 376.662 197.851C387.55 184.107 400.235 175.806 417.706 173.804C416.627 171.036 415.511 168.248 414.602 165.419C410.55 152.819 411.747 140.016 417.883 128.348C429.558 106.143 452.013 91.8634 475.404 84.643C497.792 77.7321 520.067 77.0952 541.203 88.3049Q543.681 82.2984 547.294 76.8985Q548.09 75.6943 548.945 74.5316Q549.8 73.3689 550.712 72.2505Q551.625 71.1322 552.592 70.0611Q553.559 68.9899 554.579 67.9687Q555.599 66.9475 556.669 65.9787Q557.738 65.01 558.856 64.0962Q559.973 63.1824 561.134 62.3258Q562.296 61.4692 563.499 60.672Q564.702 59.8748 565.943 59.139Q567.185 58.4032 568.462 57.7306Q569.738 57.0581 571.047 56.4505Q572.356 55.8429 573.694 55.3017Q575.032 54.7606 576.395 54.2873Q577.759 53.814 579.144 53.4097Q580.529 53.0054 581.933 52.6712Q583.337 52.337 584.756 52.0737C602.824 48.7162 625.635 51.9718 642.288 59.629C650.141 63.2396 657.142 68.1025 664.278 72.9305C665.894 70.2735 667.536 67.6223 669.531 65.2288C683.979 47.8923 703.309 44.2164 724.507 42.3247Z"/>
	<path fill="#FEFEFE" transform="matrix(0.666667 0 0 0.666992 0 -6.10352e-05)" d="M892.457 180.398C900.162 180.939 908.362 180.136 916.119 180.123C928.895 180.102 941.655 180.55 954.428 180.094C954.969 203.39 954.44 226.782 954.458 250.087L954.444 397.26L954.23 844.121C946.714 844.783 938.863 844.435 931.313 844.5C911.966 844.666 892.585 844.292 873.246 844.675C836.363 845.405 799.428 847.009 762.553 847.333C720.383 847.704 678.193 846.795 636.021 846.752Q600.88 846.505 565.739 846.847L567.838 391.955L568.467 250.423C568.444 227.871 568.967 205.151 567.857 182.628C600.511 181.783 633.303 182.38 665.976 182.202L813.652 180.745C839.858 180.533 866.294 181.535 892.457 180.398Z"/>
	<path fill="#1E1E1E" transform="matrix(0.666667 0 0 0.666992 0 -6.10352e-05)" d="M726.971 223.884C732.328 223.746 739.09 222.757 743.287 226.821C745.146 228.62 746.068 231.35 746.493 233.852C747.902 242.151 747.072 251.872 747.567 260.412C750.051 303.187 750.002 346.575 749.334 389.431C749.145 401.588 750.127 443.283 742.361 450.811C734.746 452.79 696.75 452.294 687.134 452.503C668.255 452.914 649.869 454.751 630.909 454.175C626.539 454.706 622.057 455.198 618.321 452.304C613.617 448.661 612.198 442.449 611.525 436.857C609.075 416.5 611.228 395.54 610.879 375.065C610.334 343.097 610.312 311.203 610.289 279.238C610.28 267.39 608.947 255.231 609.75 243.429C610.014 239.557 610.698 235.679 613.291 232.618C616.187 229.199 621.264 227.96 625.494 227.151C635.532 225.231 646.248 225.216 656.457 224.93C679.921 224.275 703.547 225.184 726.971 223.884Z"/>
	<path fill="#FEFEFE" transform="matrix(0.666667 0 0 0.666992 0 -6.10352e-05)" d="M736.421 231.327L737.987 232.213C739.63 234.654 739.304 270.213 739.405 275.845C740.188 319.563 741.712 362.966 740.581 406.713C740.269 418.757 740.57 430.821 739.495 442.832C724.437 441.895 708.978 442.492 693.891 442.874C686.364 443.064 626.637 446.879 622.466 444.899C621.784 444.575 620.897 443.598 620.287 443.092C615.882 429.479 617.778 404.839 617.829 389.956C617.883 374.462 617.208 358.947 617.383 343.462C617.523 331.045 618.472 318.642 618.334 306.217C618.175 291.846 618.154 277.426 617.818 263.064C617.675 256.929 616.165 249.128 617.452 243.18C618.067 240.336 619.331 238.833 622.068 237.945C627.152 236.295 634.036 236.985 639.371 236.737C653.534 236.078 729.25 236.481 735.965 231.677C736.121 231.566 736.269 231.444 736.421 231.327Z"/>
	<path fill="#1E1E1E" transform="matrix(0.666667 0 0 0.666992 0 -6.10352e-05)" d="M727.965 243.419C729.32 243.236 730.041 243.252 731.332 243.715C731.701 244.346 732.014 244.82 732.114 245.561C733.04 252.428 731.863 260.655 731.957 267.682L732.521 334.776L732.679 399.631C732.646 410.047 733.335 420.831 732.111 431.168C698.881 434.048 664.998 435.1 631.65 435.544C630.453 435.579 629.291 435.421 628.105 435.282C627.791 434.773 627.351 434.324 627.163 433.757C626.627 432.142 627.469 413.302 627.463 409.974Q626.78 350.383 627.457 290.793C627.649 275.717 626.915 260.231 628.22 245.226C661.277 246.064 694.918 244.724 727.965 243.419Z"/>
	<path fill="#FEFEFE" transform="matrix(0.666667 0 0 0.666992 0 -6.10352e-05)" d="M713.63 246.394C718.956 245.94 724.524 246.111 729.881 245.977C729.401 264.481 730.093 282.817 730.166 301.303L729.928 393.06C729.857 405.03 730.25 417.015 729.781 428.978C701.483 429.653 673.132 432.627 644.813 432.82Q637.122 432.948 629.431 432.92C631.346 414.891 629.689 390.492 629.74 371.652L630.466 247.697C642.739 247.847 655.042 247.114 667.319 246.965C682.755 246.779 698.207 247.109 713.63 246.394Z"/>
	<path fill="#1E1E1E" transform="matrix(0.666667 0 0 0.666992 0 -6.10352e-05)" d="M704.297 359.809C704.814 360.05 704.564 359.911 705.164 360.325C706.743 361.412 706.839 361.27 707.2 363.211C704.769 368.247 657.147 410.956 649.365 418.213C648.812 417.963 648.041 417.681 647.573 417.261C646.855 416.616 646.381 415.74 646.505 414.783C647.299 408.653 696.095 366.654 704.297 359.809Z"/>
	<path fill="#1E1E1E" transform="matrix(0.666667 0 0 0.666992 0 -6.10352e-05)" d="M700.973 305.037C701.137 305.18 701.317 305.305 701.464 305.465C702.489 306.582 702.823 307.817 702.443 309.281C700.694 316.001 666.573 350.281 660.452 353.853C659.771 352.856 659.295 351.766 658.769 350.682C658.939 348.812 659.348 347.885 660.532 346.424C666.024 339.646 673.37 333.756 679.493 327.489C686.664 320.15 693.171 311.679 700.973 305.037Z"/>
	<path fill="#1E1E1E" transform="matrix(0.666667 0 0 0.666992 0 -6.10352e-05)" d="M891.363 220.989C899.123 220.516 912.366 218.12 918.854 223.793C922.102 226.634 921.683 231.154 921.882 235.231C922.436 246.55 920.21 258.209 919.721 269.548C919.021 285.76 919.916 301.897 920.538 318.086C921.254 336.739 919.944 355.549 920.058 374.23C920.171 392.696 922.294 412.282 920.205 430.593C919.743 434.64 918.494 440.333 915.428 443.251C913.008 445.553 907.979 446.124 904.791 446.492C892.207 447.946 879.11 447.28 866.423 447.565C851.197 447.907 835.992 448.935 820.767 449.382C812.617 449.49 797.075 451.438 790.451 446.698C787.665 444.704 786.844 439.258 786.435 436.055C784.598 421.68 785.883 402.139 785.938 387.187C786.052 356.12 786.036 325.128 786.68 294.065C787.054 275.995 785.373 257.638 786.681 239.611C786.937 236.086 787.633 231.172 790.037 228.404C791.741 226.44 794.931 225.869 797.397 225.486C809.629 223.582 822.907 223.913 835.311 223.522Q863.355 222.648 891.363 220.989Z"/>
	<path fill="#FEFEFE" transform="matrix(0.666667 0 0 0.666992 0 -6.10352e-05)" d="M901.956 229.821C905.742 229.54 910.117 228.811 913.652 230.412C914.644 232.175 914.691 234.13 914.648 236.116C914.476 244.173 913.249 252.297 912.784 260.357C912.111 272.022 912.194 283.86 911.918 295.552C911.515 312.639 911.235 329.617 911.764 346.708C912.164 359.622 913.344 372.599 913.268 385.509C913.171 401.833 911.088 418.639 910.26 435.003C892.508 436.612 874.569 436.688 856.764 437.45C839.04 438.208 821.154 440.04 803.432 438.348C800.645 438.196 797.867 437.858 795.091 437.568C794.27 406.841 794.022 375.99 793.611 345.253C793.347 325.451 793.711 305.646 793.456 285.835C793.257 270.412 792.018 253.878 793.615 238.544C793.812 236.647 794.086 234.978 795.451 233.575C798.226 233.265 800.326 233.676 802.942 234.497C813.082 237.678 888.401 230.966 901.956 229.821Z"/>
	<path transform="matrix(0.666667 0 0 0.666992 0 -6.10352e-05)" d="M898.227 239.766C899.424 239.567 900.657 239.324 901.868 239.254C903.676 239.15 904.253 239.225 905.534 240.446C904.483 256.946 904.822 273.332 904.668 289.84L903.817 382.757C903.681 394.267 905.841 413.102 902.8 423.778C901.181 425.319 898.516 425.262 896.31 425.401C867.452 427.228 838.31 425.45 809.423 428.063C807.878 428.325 806.66 428.688 805.192 427.934C803.03 422.895 805.014 354.967 805.008 344.509C804.99 311.225 805.968 275.945 803.307 242.904C813.098 241.118 823.155 241.646 833.073 241.63C853.088 241.598 878.749 242.516 898.227 239.766Z"/>
	<path fill="#FEFEFE" transform="matrix(0.666667 0 0 0.666992 0 -6.10352e-05)" d="M900.061 241.873L902.345 241.972C902.453 242.198 902.57 242.42 902.671 242.649C902.885 243.134 901.901 404.539 901.321 417.151C901.252 418.648 900.901 419.997 900.333 421.386C898.557 422.939 897.749 423.032 895.403 423.283C888.435 424.029 880.937 423.53 873.917 423.595C852.569 423.793 829.826 422.969 808.709 426.029L807.899 426.15C806.941 425.138 806.922 424.132 806.864 422.775C805.955 401.298 807.401 379.413 807.603 357.895Q808.325 301.243 806.249 244.624C815.508 243.426 825.348 244.244 834.711 244.139C856.552 243.895 878.292 243.848 900.061 241.873Z"/>
	<path fill="#1E1E1E" transform="matrix(0.666667 0 0 0.666992 0 -6.10352e-05)" d="M886.217 335.854C886.598 336.17 886.732 336.251 887.069 336.699C888.2 338.203 888.368 338.878 888.052 340.675C878.421 352.196 866.015 362.7 855.316 373.327C846.855 381.73 832.767 397.971 823.51 404.281C823.065 403.903 822.6 403.529 822.199 403.103C820.815 401.636 820.708 401.457 820.77 399.399C824.645 392.154 876.791 343.409 886.217 335.854Z"/>
	<path fill="#1E1E1E" transform="matrix(0.666667 0 0 0.666992 0 -6.10352e-05)" d="M871.407 266.082C873.255 266.893 873.909 267.05 875.147 268.702C872.155 275.247 850.295 297.114 844.352 303.819C838.969 309.893 833.982 316.301 828.617 322.395C827.086 322.014 826.25 321.558 824.956 320.65L824.768 318.935C830.625 306.148 860.255 276.44 871.407 266.082Z"/>
	<path fill="#1E1E1E" transform="matrix(0.666667 0 0 0.666992 0 -6.10352e-05)" d="M835.381 598.972C850.313 597.572 866.025 599.316 881.015 599.85C888.887 600.131 897.199 599.565 904.991 600.505C908.827 600.967 914.2 601.981 916.58 605.28C918.813 608.376 919.487 612.096 919.609 615.821C920.062 629.67 916.425 643.691 916.557 657.647C916.631 665.487 917.558 673.335 917.822 681.174C918.09 689.124 917.79 697.091 918.198 705.037C918.567 712.24 919.454 719.532 919.477 726.736C919.504 735.35 917.688 743.918 917.558 752.536C917.397 763.156 918.989 774.262 917.449 784.785C916.782 789.342 914.171 790.987 910.723 793.534C897.436 794.357 883.769 793.698 870.441 793.656C857.116 793.307 843.666 793.485 830.341 793.827C817.043 794.168 800.818 796.449 787.984 793.429C785.726 791.731 785.315 787.751 784.886 785.129C783.392 775.985 783.834 766.666 783.81 757.436L783.728 719.65C783.756 694.402 782.605 668.672 783.875 643.487C784.327 634.533 785.127 609.989 789.839 603.435C798.047 597.831 824.603 599.607 835.381 598.972Z"/>
	<path fill="#FEFEFE" transform="matrix(0.666667 0 0 0.666992 0 -6.10352e-05)" d="M846.05 608.663C856.552 610.41 904.455 606.965 909.622 611.897C912.598 617.283 909.978 630.02 909.567 636.408Q908.337 654.759 909.241 673.129C909.706 681.091 910.814 689.021 911.204 696.982C911.521 703.467 910.872 709.996 910.942 716.493C911.052 726.624 911.719 736.769 911.635 746.898C911.543 758.057 910.163 769.416 909.262 780.544C896.908 784.369 868.9 782.528 854.861 782.558C847.639 783.708 839.349 783.136 831.979 783.236Q812.34 783.475 792.708 784.027C792.788 764.161 790.377 614.811 793.176 610.336C793.491 609.832 793.946 609.889 794.492 609.796C799.695 608.917 806.182 609.931 811.575 609.961C823.009 610.024 834.673 609.839 846.05 608.663Z"/>
	<path fill="#1E1E1E" transform="matrix(0.666667 0 0 0.666992 0 -6.10352e-05)" d="M884.473 645.627C886.251 646.516 886.655 646.523 887.6 648.348C887.147 650.383 886.081 651.617 884.682 653.087C876.414 661.78 866.658 669.558 857.734 677.592C845.418 688.68 833.439 700.171 821.255 711.408L819.289 709.704C818.874 708.578 818.452 708.109 818.782 706.896C819.915 702.732 878.531 649.392 884.473 645.627Z"/>
	<path fill="#1E1E1E" transform="matrix(0.666667 0 0 0.666992 0 -6.10352e-05)" d="M883.278 720.604C884.937 721.311 885.371 721.452 886.519 722.923C885.818 728.798 860.608 752.827 854.88 757.989C853.164 756.796 852.29 756.538 851.562 754.537C854.766 747.262 876.293 727.213 883.278 720.604Z"/>
	<path fill="#1E1E1E" transform="matrix(0.666667 0 0 0.666992 0 -6.10352e-05)" d="M698.198 601.233C708.992 600.785 733.519 598.502 742.353 603.623C744.081 604.625 744.726 606.542 745.223 608.383C749.126 622.851 745.708 672.698 744.997 690.008C744.529 701.425 744.618 712.934 744.692 724.36C744.814 743.17 747.756 762.584 746.887 781.28C746.655 786.27 745.608 789.433 743.155 793.759Q740.658 794.71 738.056 795.32Q735.454 795.929 732.794 796.186C723.913 796.962 714.579 796.347 705.643 796.269Q684.225 795.977 662.813 796.565C651.932 796.531 631.983 799.542 622.329 796.344C620.116 795.611 618.399 794.662 617.33 792.567C615.382 788.748 614.437 783.845 613.999 779.605C612.588 765.923 612.729 751.809 612.432 738.055C611.791 708.365 611.91 679.061 612.553 649.388C612.845 635.914 610.797 620.203 614.839 607.315C617.651 605.121 620.407 602.631 623.993 601.913C632.465 600.216 643.484 602.08 652.214 602.142C667.506 602.252 682.919 601.877 698.198 601.233Z"/>
	<path fill="#FEFEFE" transform="matrix(0.666667 0 0 0.666992 0 -6.10352e-05)" d="M685.969 611.749C695.681 610.916 730.89 610.4 739.087 612.587C739.29 612.976 739.647 613.319 739.697 613.755C740.035 616.72 738.49 621.788 738.257 624.999C737.679 632.944 737.599 641.069 737.55 649.036C737.468 662.297 738.88 675.617 739.389 688.872C740.6 720.412 740.636 752.698 736.324 784.018C717.211 787.599 695.802 786.146 676.312 786.266C658.885 786.183 641.324 786.802 623.918 786.049C621.248 760.865 622.612 734.989 622.475 709.682C622.362 688.762 621.273 667.918 620.731 647.016C620.429 635.35 620.718 623.672 620.449 611.996C642.351 612.46 664.07 612.481 685.969 611.749Z"/>
	<path transform="matrix(0.666667 0 0 0.666992 0 -6.10352e-05)" d="M692.605 618.492C705.867 616.815 719.463 619.876 732.708 619.457C732.959 630.001 731.911 640.561 731.984 651.115C732.107 668.78 733.321 686.427 733.429 704.098C733.531 720.622 732.541 736.982 731.466 753.455C731.098 759.093 731.695 769.154 728.513 773.841C716.575 777.073 690.683 775.919 677.435 775.999C662.272 775.955 646.453 775.935 631.472 773.574C633.758 751.899 632.142 729.094 632.011 707.284C631.835 678.011 632.485 648.726 632.249 619.44C652.331 618.372 672.504 619.338 692.605 618.492Z"/>
	<path fill="#FEFEFE" transform="matrix(0.666667 0 0 0.666992 0 -6.10352e-05)" d="M687.224 620.803Q709.198 619.966 731.12 621.701C728.478 650.598 731.203 679.047 731.261 707.942C731.303 729.21 729.027 750.383 728.098 771.619C711.703 774.109 694.779 773.741 678.226 774.022Q656.28 774.16 634.46 771.799C634.841 749.277 634.261 726.755 634.386 704.233C634.538 676.78 635.345 648.976 634.198 621.561C651.734 620.442 669.623 621.143 687.224 620.803Z"/>
	<path fill="#1E1E1E" transform="matrix(0.666667 0 0 0.666992 0 -6.10352e-05)" d="M700.06 674.159C701.104 674.261 701.985 674.547 702.982 674.85C703.553 675.714 704.083 676.056 703.952 677.138C703.164 683.631 662.117 715.93 655.155 720.86C653.474 720.655 653.385 720.655 652.157 719.501L652.241 717.17C656.54 709.634 690.648 682.599 700.06 674.159Z"/>
	<path fill="#1E1E1E" transform="matrix(0.666667 0 0 0.666992 0 -6.10352e-05)" d="M690.178 721.41C691.177 721.558 691.797 721.932 692.684 722.391L693.19 724.128C690.824 731.109 668.627 750.269 662.106 756.329C661.58 756.201 661.357 756.173 660.828 755.904C659.159 755.058 659.019 754.377 658.666 752.63C661.156 745.271 683.275 727.044 690.178 721.41Z"/>
	<path fill="#1E1E1E" transform="matrix(0.666667 0 0 0.666992 0 -6.10352e-05)" d="M834.049 478.265C845.519 477.859 885.235 476.525 893.784 484.078C897.527 487.385 898.457 492.205 898.753 496.949C899.427 507.737 898.851 518.824 898.786 529.642C898.726 539.442 899.427 550.18 897.947 559.844C897.516 562.656 896.931 565.676 894.915 567.814C885.749 577.534 763.11 575.86 741.744 576.249C729.302 576.475 716.854 577.408 704.436 578.18C692.992 578.975 654.206 582.319 646.009 577.107C643.409 573.37 642.477 568.251 642.133 563.787C640.925 548.079 638.852 510.017 641.282 495.777C641.909 492.102 643.131 488.067 645.715 485.275C646.881 484.015 647.83 483.472 649.5 483.055C656.445 481.321 665.66 482.021 672.884 481.759Q698.686 480.737 724.507 480.963C738.288 481.121 752.07 481.816 765.855 481.434C788.61 480.805 811.246 478.34 834.049 478.265Z"/>
	<path fill="#FEFEFE" transform="matrix(0.666667 0 0 0.666992 0 -6.10352e-05)" d="M826.352 488.035C838.311 487.625 879.228 486.375 887.492 491.101C889.994 497.834 888.384 551.795 887.389 561.907C868.579 562.875 849.777 564.963 830.954 565.496C788.94 566.688 747.195 565.816 705.187 568.507C687.018 568.602 668.696 570.472 650.533 569.299C648.634 559.549 646.985 512.817 647.563 502.05C647.748 498.608 647.956 494.799 649.662 491.728C655.238 490.93 661.105 491.646 666.735 491.704C674.581 491.784 682.457 491.583 690.301 491.369C716.913 490.641 743.447 491.483 770.03 490.889C788.795 490.47 807.584 488.814 826.352 488.035Z"/>
	<path transform="matrix(0.666667 0 0 0.666992 0 -6.10352e-05)" d="M853.263 498.483C862.709 498.532 872.379 497.879 881.789 498.62Q880.988 513.294 881.097 527.99C881.138 535.816 881.943 544.377 880.728 552.105C878.315 554.32 875.2 554.416 872.076 554.671C853.536 556.184 834.509 554.949 815.895 555.103Q751.945 555.021 688.028 557.084C679.161 556.99 670.378 557.069 661.524 557.553C661.51 548.399 659.539 505.324 661.327 499.346C668.021 497.385 681.557 499.236 688.905 499.57C697.5 499.961 706.118 500.835 714.715 501.026C717.133 501.079 719.511 500.515 721.932 500.544C733.756 500.689 745.524 501.486 757.371 501.437C789.351 501.305 821.31 499.714 853.263 498.483Z"/>
	<path fill="#FEFEFE" transform="matrix(0.666667 0 0 0.666992 0 -6.10352e-05)" d="M662.212 501.073Q723.847 504.26 785.558 503.383C816.798 502.907 847.901 501.029 879.177 500.949C878.338 518.005 878.97 534.947 878.631 552C860.05 554.123 840.626 552.541 821.938 552.619Q762.545 552.437 703.18 554.252C690.202 554.585 677.099 553.865 664.156 554.841C664.428 536.97 663.605 518.889 662.212 501.073Z"/>
	<path fill="#1E1E1E" transform="matrix(0.666667 0 0 0.666992 0 -6.10352e-05)" d="M597.498 498.263C598.959 498.16 600.427 498.066 601.892 498.093C608.048 498.21 614.084 501.057 618.223 505.602Q618.635 506.046 619.024 506.511Q619.412 506.976 619.777 507.46Q620.141 507.943 620.48 508.445Q620.82 508.947 621.133 509.466Q621.446 509.984 621.733 510.518Q622.019 511.052 622.278 511.6Q622.537 512.148 622.767 512.708Q622.998 513.268 623.2 513.839Q623.401 514.411 623.574 514.992Q623.746 515.572 623.888 516.161Q624.031 516.75 624.143 517.345Q624.255 517.941 624.337 518.541Q624.419 519.141 624.47 519.745Q624.521 520.349 624.541 520.954Q624.561 521.56 624.55 522.166Q624.54 522.771 624.498 523.376C623.789 533.533 617.561 537.818 610.572 544.048C610.128 559.828 609.256 576.672 610.491 592.384C608.922 595.48 607.261 598.357 605.32 601.234C604.471 601.735 603.558 602.332 602.628 602.661C600.78 603.315 599.905 602.803 598.288 602.041C591.812 594.334 594.343 557.69 593.923 546.269C588.377 540.537 583.053 536.571 580.561 528.544C578.71 522.58 578.536 515.128 581.566 509.504C585.001 503.128 590.863 500.281 597.498 498.263Z"/>
	<path fill="#FEFEFE" transform="matrix(0.666667 0 0 0.666992 0 -6.10352e-05)" d="M602.423 505.955C605.714 506.288 607.997 507.085 610.425 509.427C613.749 512.632 616.447 517.516 616.308 522.237C616.222 525.172 615.068 527.188 612.951 529.126C611.187 528.404 610.404 519.716 607.738 517.114C605.508 514.936 603.122 514.522 600.158 514.544L599.391 514.555C597.972 515.375 596.565 516.299 595.423 517.486C591.165 521.912 592.484 530.237 592.684 535.886C590.589 532.142 588.276 528.104 587.507 523.829C586.381 517.563 588.934 513.461 592.347 508.6C595.743 507.31 598.794 506.305 602.423 505.955Z"/>
	<path fill="#FEFEFE" transform="matrix(0.666667 0 0 0.666992 0 -6.10352e-05)" d="M720.463 49.7711C730.304 48.3088 742.46 48.861 752.421 49.8347C770.031 51.5562 788.935 57.1113 802.084 69.399C806.271 73.3117 809.858 78.0884 813.496 82.5097C814.558 82.7416 814.177 82.7991 814.988 82.6003C818.886 81.6444 821.263 79.1788 824.079 76.5299C837.946 63.4855 848.498 60.5348 867.324 60.8227C885.001 61.0931 900.342 66.8141 912.818 79.7332C916.88 83.9395 920.141 88.8773 924.25 93.0393C926.087 94.8995 928.338 95.6941 930.881 94.7167C933.207 93.8228 935.224 91.4542 937.15 89.8994C944.634 83.8602 953.505 81.778 963.003 81.8123C977.655 81.8653 990.889 85.8858 1004.03 92.1404C1006.32 93.2314 1009.12 94.1937 1011.16 95.682C1013.17 97.154 1014.4 99.5174 1016.3 101.038C1020.6 104.477 1033.21 96.4295 1039.26 96.5053C1050.37 96.6447 1062.92 103.879 1070.35 111.798C1081.79 123.993 1083.69 140.485 1075.31 155.02C1073.17 158.725 1067.31 163.83 1067.36 168.102C1067.38 169.05 1067.9 171.238 1068.83 171.73C1075.2 175.099 1095.25 165.656 1113.96 182.933C1123.62 191.855 1128.3 205.331 1128.8 218.254C1129.74 242.321 1121.99 248.775 1107.34 264.655L1107.76 265.985L1106.67 266.158C1109.4 269.645 1125.91 269.996 1134.44 277.918C1145.37 288.078 1147.93 305.544 1148.36 319.817C1149 340.928 1148.59 364.174 1130.75 378.531C1125.56 382.704 1117.97 386.024 1113.67 390.974C1108.02 397.488 1114.66 408.576 1119.42 413.868C1124.32 419.324 1130.68 423.524 1136.19 428.345C1148.38 439.022 1162.35 456.02 1163.99 472.528C1165.84 491.087 1157.25 510.32 1144.53 523.504C1140.47 527.71 1135.19 531.072 1131.54 535.589C1129.48 538.138 1131.55 540.627 1133.39 542.692C1137.1 546.858 1142.01 549.98 1146.06 553.826C1157.32 564.524 1164.04 581.846 1165.52 597.088C1168.18 624.514 1156.71 652.177 1136.97 671.139C1131.92 675.998 1123.24 681.051 1119.21 685.957C1119.01 686.856 1118.79 687.718 1118.98 688.641C1120.89 697.958 1140.73 701.766 1147.9 705.951C1159.69 712.829 1168.07 726.61 1171.31 739.636C1173.46 748.261 1171.33 794.253 1166.97 801.421C1165.09 807.815 1149.85 815.352 1146.39 823.678C1141.63 835.12 1155.45 833.044 1158.59 840.646C1158.64 840.78 1158.69 840.916 1158.74 841.051C1152.51 842.085 1145.68 842.034 1139.35 842.35C1123.42 843.146 1107.57 843.391 1091.63 843.43C1068.99 843.487 1046.39 844.052 1023.77 844.35C1026.97 837.757 1025.76 743.536 1025.85 730.754Q1028.51 545.631 1026.73 360.498C1026.53 343.618 1024.96 326.794 1024.57 309.926Q1022.48 230.027 1022.83 150.102C1022.82 142.509 1024.6 120.631 1019.02 115.595C1016.73 113.525 1013.11 112.181 1010.04 111.904C1001.8 111.161 992.899 112.087 984.597 112.336L938.49 113.513L779.062 116.462L611.815 119.441Q579.57 119.743 547.338 120.705C537.432 120.99 527.247 120.81 517.404 121.765C515.545 121.946 513.291 121.886 511.927 123.276C509.691 125.556 507.775 129.634 507.356 132.764C505.73 144.916 507.302 158.213 506.896 170.545C505.413 215.646 505.079 260.793 503.886 305.909Q500.712 395.614 499.566 485.369Q498.997 590.769 499.772 696.17L499.396 847.18Q450.639 848.618 401.861 848.606C385.864 848.725 369.951 849.563 353.941 849.166C350.448 844.776 347.262 839.287 346.212 833.724C342.198 812.465 365.392 815.546 372.035 805.892C372.147 804.622 372.482 804.026 371.518 803.043C369.82 801.312 366.313 799.927 364.164 798.719C355.779 794.003 348.71 788.772 342.851 780.997C333.465 768.544 329.84 751.733 332.065 736.401C335.869 710.176 348.702 708.783 366.549 695.297C368.914 693.51 370.481 692.026 370.9 688.979C369.423 683.49 354.723 677.4 349.858 673.373C341.778 666.684 335.861 658.24 334.912 647.573C332.782 623.619 348.435 608.383 366.539 596.057C371.579 592.625 378.434 588.672 382.197 583.881C384.777 580.596 382.058 577.984 379.653 575.465C375.43 571.042 370.143 567.491 365.521 563.472C352.239 551.925 343.769 536.51 342.002 518.867C339.542 494.302 351.245 472.518 370.848 458.202C375.973 454.458 383.437 451.545 387.407 446.725C387.616 440.569 373.881 434.504 369.483 430.559C363.285 425.001 358.263 418.222 355.369 410.377C352.955 403.835 352.112 396.854 351.91 389.914C351.138 363.346 364.513 343.174 382.13 324.854C386.979 319.812 394.87 313.922 397.603 307.62C399.357 303.574 380.473 287.918 377.115 283.828C373.066 278.895 369.851 273.524 367.685 267.509C361.986 251.68 364.697 234.206 371.676 219.268C378.646 204.35 391.083 187.044 407.817 183.073C413.785 181.656 420.22 182.219 425.995 180.123C427.928 175.333 414.934 156.913 420.205 139.603C425.124 123.449 441.249 108.361 455.675 100.551C473.332 90.991 502.958 82.5907 522.843 88.2448C530.014 90.284 536.272 95.0592 543.472 97.2074C547.34 96.4605 551.394 83.7778 553.766 80.1595Q555.849 77.0446 558.362 74.2642Q560.874 71.4838 563.762 69.0965C583.662 52.574 621.792 56.5919 643.716 67.8523C650.465 71.3185 659.835 81.5819 667.058 82.2248C670.942 78.7782 673.274 72.3133 676.506 68.1011C686.574 54.9788 705.233 51.9867 720.463 49.7711Z"/>
	<path fill="#FEFEFE" transform="matrix(0.666667 0 0 0.666992 0 -6.10352e-05)" d="M987.97 154.347C988.304 154.778 988.756 155.139 988.973 155.639C989.207 156.177 988.646 320.035 988.667 334.966L991.14 847.274C984.854 847.484 978.533 847.422 972.241 847.488C971.397 847.261 970.754 846.827 970.002 846.392C968.38 839.695 969.623 830.52 969.635 823.476L969.671 773.223L969.778 549.08L969.153 319.779Q968.669 273.484 968.737 227.187C968.645 209.192 967.772 191.031 968.711 173.059C975.789 167.824 981.722 160.565 987.97 154.347Z"/>
	<path fill="#FEFEFE" transform="matrix(0.666667 0 0 0.666992 0 -6.10352e-05)" d="M513.801 135.475Q522.58 143.129 530.139 151.992C531.924 184.796 530.279 218.019 529.739 250.857C529.142 287.198 529.487 323.606 529.141 359.961L522.552 844.572L522.094 845.527C517.33 847.763 510.576 847.176 505.378 847.149Q507.055 685.957 506.26 524.758Q506.724 456.952 507.933 389.154L510.694 297.959L512.775 184.829C513.11 168.406 512.737 151.862 513.801 135.475Z"/>
	<path fill="#FEFEFE" transform="matrix(0.666667 0 0 0.666992 0 -6.10352e-05)" d="M1013.59 124.211C1013.71 124.301 1013.84 124.374 1013.94 124.479C1015.69 126.247 1015.43 129.861 1015.5 132.164C1016 149.766 1015.58 167.442 1015.63 185.053L1016.46 263.502Q1020.61 461.729 1019.83 659.997L1019.37 762.607C1019.01 791.259 1018.1 819.754 1018.9 848.421C1013.36 848.547 1006.46 849.426 1001.11 848.187C1004.25 836.712 1002.59 805.414 1002.55 791.632L1002.2 700.053Q1002.34 547.74 1000.43 395.438C999.546 332.562 998.224 269.766 998.341 206.872C998.38 185.937 998.001 164.916 998.644 143.995C1004.5 137.896 1008.97 131.251 1013.59 124.211Z"/>
	<path fill="#FEFEFE" transform="matrix(0.666667 0 0 0.666992 0 -6.10352e-05)" d="M539.259 162.353C544.993 166.095 550.493 171.077 555.208 176.022C552.581 190.6 554.259 212.756 554.208 228.3Q553.622 285.377 553.931 342.456L551.847 715.529L551.971 809.823C551.966 818.916 553.318 838.11 551.528 846.038C549.438 847.128 546.969 846.622 544.685 846.456L535.662 846.081C534.816 820.226 535.831 794.281 536.095 768.425Q536.319 706.534 537.188 644.65L540.334 349.528C540.623 287.07 540.911 224.788 539.259 162.353Z"/>
	<path fill="#FEFEFE" transform="matrix(0.666667 0 0 0.666992 0 -6.10352e-05)" d="M874.267 911.899C880 911.322 885.843 911.485 891.602 911.445C906.032 931.592 921.236 951.244 936.264 970.95L810.375 971.426C790.592 970.576 770.597 971.363 750.783 971.495C750.897 952.297 753.238 932.79 754.736 913.643C794.609 912.378 834.372 914.233 874.267 911.899Z"/>
	<path fill="#FEFEFE" transform="matrix(0.666667 0 0 0.666992 0 -6.10352e-05)" d="M613.949 913.315C627.579 912.209 641.812 912.987 655.497 913L748.136 913.737C747.427 933.065 744.576 952.196 744.079 971.588Q715.262 971.457 686.466 970.331C653.584 969.076 620.693 970.416 587.812 970.744C576.713 970.855 565.419 971.535 554.342 970.993C567.077 958.134 580.471 945.961 593.426 933.328C600.028 926.892 606.564 918.748 613.949 913.315Z"/>
	<path fill="#FEFEFE" transform="matrix(0.666667 0 0 0.666992 0 -6.10352e-05)" d="M1023.42 909.433C1024.41 909.289 1025.6 909.507 1026.61 909.578C1034.2 914.724 1098.4 969.571 1100.83 973.793C1084.43 974.134 1067.77 972.507 1051.36 971.974Q1013.8 970.903 976.224 971.362C965.589 971.404 954.854 971.742 944.24 971.023C931.41 949.597 913.537 931.455 899.441 910.94C930.32 910.095 961.141 910.552 992.014 910.1C1002.35 909.948 1013.24 911.334 1023.42 909.433Z"/>
	<path fill="#FEFEFE" transform="matrix(0.666667 0 0 0.666992 0 -6.10352e-05)" d="M999.298 118.904C1001.38 118.651 1002.86 118.199 1004.85 119.018C1005.05 123.526 996.896 130.348 994.293 134.286L993.921 134.858C986.284 133.34 978.07 134.111 970.303 134.152C952.285 134.248 934.368 134.792 916.366 135.415L819.93 138.144Q731.837 140.14 643.727 141.138C607.937 141.685 572.12 143.163 536.334 143.359L531.488 137.928L523.453 130.334L523.563 129.523L523.638 130.252L522.882 129.176C535.53 127.377 549.198 127.904 561.97 127.729L627.173 126.68L879.551 122.15L953.338 120.533C968.627 120.166 984.054 120.226 999.298 118.904Z"/>
	<path fill="#FEFEFE" transform="matrix(0.666667 0 0 0.666992 0 -6.10352e-05)" d="M978.032 145.228C979.662 145.309 980.839 145.523 982.388 146.036C977.934 152.556 970.401 158.622 964.766 164.262L680.619 164.536L601.131 165.062C589.984 165.189 578.815 165.967 567.668 165.71C564.967 165.648 563.463 165.831 561.275 164.204C557.602 160.45 553.773 156.888 549.92 153.322C567.626 154.746 585.665 153.641 603.419 153.339Q645.509 152.923 687.588 151.893Q832.846 150.15 978.032 145.228Z"/>
	<path fill="#FEFEFE" transform="matrix(0.666667 0 0 0.666992 0 -6.10352e-05)" d="M511.484 912.358C524.57 911.804 537.999 912.771 551.118 912.899C568.805 913.07 586.528 912.552 604.207 913.064C596.97 921.995 587.352 930.142 579.019 938.08L544.742 971.164C541.982 971.099 539.2 971.172 536.437 971.181L441.114 971.658C463.989 951.269 488.155 932.235 511.484 912.358Z"/>
	<path fill="#FEFEFE" transform="matrix(0.666667 0 0 0.666992 0 -6.10352e-05)" d="M812.31 854.883C824.704 855.662 837.935 854.543 850.412 854.471C862.962 870.299 875.185 887.083 886.507 903.815C867.631 905.344 848.515 905.359 829.584 905.792C821.558 905.248 813.182 905.926 805.122 905.961L755.728 906.035C757.333 889.017 759.47 872.022 760.761 854.981C777.805 855.388 795.293 856.026 812.31 854.883Z"/>
	<path fill="#FEFEFE" transform="matrix(0.666667 0 0 0.666992 0 -6.10352e-05)" d="M952.141 854.096C956.155 853.487 960.833 854.352 965.059 853.998C982.884 870.873 1001.84 886.424 1019.8 903.14C988.723 904.224 957.204 902.586 926.063 902.605Q910.75 902.993 895.465 904.005L858.646 854.489C889.791 854.457 921.008 854.915 952.141 854.096Z"/>
	<path fill="#FEFEFE" transform="matrix(0.666667 0 0 0.666992 0 -6.10352e-05)" d="M717.27 854.795C729.988 854.679 742.778 854.523 755.488 854.955C752.322 871.837 750.988 888.826 748.388 905.769C719.735 904.448 690.005 905.458 661.26 905.951Q640.768 905.456 620.272 905.7C636.244 888.834 652.706 872.683 668.154 855.301C684.512 855.241 700.925 855.444 717.27 854.795Z"/>
	<path fill="#FEFEFE" transform="matrix(0.666667 0 0 0.666992 0 -6.10352e-05)" d="M594.754 854.817C603.57 855.336 612.537 854.757 621.374 854.783L660.141 855.244C644.693 872.694 627.489 889.069 611.262 905.839C603.011 905.423 594.686 905.669 586.424 905.71L518.17 905.694C537.726 889.21 555.487 869.285 576.871 855.177C582.832 855.178 588.807 855.282 594.754 854.817Z"/>
	<path fill="#FEFEFE" transform="matrix(0.666667 0 0 0.666992 0 -6.10352e-05)" d="M1154.34 848.527L1165.83 848.074C1164.47 851.123 1125.62 877.087 1120.21 879.615C1118.75 881.69 1058.87 922.085 1054.83 923.367C1045.03 914.752 1034.81 904.098 1023.89 897.126C1030.45 894.721 1044.77 886.168 1049.32 881.012C1046.69 887.007 1031.81 897.51 1026.18 902.148C1042.79 899.416 1085.52 873.379 1100.92 862.858C1106.46 859.078 1111.35 853.955 1117 850.501C1118.91 849.337 1121.57 849.133 1123.75 848.832C1127.11 848.793 1130.53 848.562 1133.82 849.376C1131.54 853.845 1119.65 858.524 1114.91 861.106C1101.26 868.536 1086.81 876.516 1074.13 885.487C1065.77 891.397 1058.14 899.827 1049.06 904.443C1059.6 900.342 1150.24 853.793 1154.34 848.527Z"/>
	<path fill="#FEFEFE" transform="matrix(0.666667 0 0 0.666992 0 -6.10352e-05)" d="M494.117 853.973C495.068 853.853 496.058 853.964 497.016 854.005L496.944 854.834C490.969 860.766 480.691 864.499 473.344 868.582L427.767 894.103L426.281 894.51L425.646 893.771C426.104 893.129 426.491 892.579 427.089 892.055C435.307 884.854 485.794 853.771 494.117 853.973Z"/>
	<path fill="#FEFEFE" transform="matrix(0.666667 0 0 0.666992 0 -6.10352e-05)" d="M1054.97 855.576C1057.13 855.72 1058.77 857.617 1060.14 859.094L1060.09 860.42C1059.06 861.294 1058.08 862.065 1056.76 862.456C1044.36 866.127 1026.87 880.073 1015.88 887.6C1015.57 887.504 1015.25 887.44 1014.96 887.312C1013.2 886.56 1012.12 885.829 1011.61 884.054C1024.41 873.008 1041.25 865.683 1054.97 855.576Z"/>
	<path fill="#FEFEFE" transform="matrix(0.666667 0 0 0.666992 0 -6.10352e-05)" d="M1085.34 851.831L1091.11 851.717L1091.41 852.178C1082.18 858.177 1073.41 865.699 1063.73 870.865L1061.81 872.273C1063.12 870.303 1064.78 868.053 1065.17 865.696C1065.57 863.253 1066.25 861.405 1068.02 859.594C1071.6 855.927 1080.21 851.831 1085.34 851.831Z"/>
</svg>
