<?xml version="1.0" encoding="utf-8" ?>
<svg xmlns="http://www.w3.org/2000/svg" xmlns:xlink="http://www.w3.org/1999/xlink" width="1024" height="683">
	<path fill="white" transform="matrix(0.666667 0 0 0.666992 0 -6.10352e-05)" d="M0 0L1534.69 0C1535.54 1.34434 1535.84 2.50848 1535.91 4.09208C1536.57 18.5072 1536 33.1619 1536 47.604L1536.01 132.471L1536.01 391.421L1536.01 865.91L1536 981.169C1536 989.131 1537.19 1015.2 1535.79 1021.39C1535.57 1022.35 1535.21 1023.17 1534.69 1024L0 1024L0 0Z"/>
	<path transform="matrix(0.666667 0 0 0.666992 0 -6.10352e-05)" d="M712.172 36.7642L784.51 36.6443C796.227 36.5992 808.914 35.5204 820.5 36.6785C822.644 36.8928 823.373 36.9017 824.774 38.6347C825.655 42.5213 823.768 47.791 822.909 51.6463C832.28 51.7605 869.141 49.4422 874.874 53.7959C875.419 58.4154 872.166 66.4414 870.957 71.2255C880.324 71.3153 927.431 68.4629 932.451 73.2715C932.142 78.6621 928.222 85.8517 926.439 91.1494C936.947 91.245 986.216 90.0082 992.233 91.8881C993.23 93.8557 993.095 95.0589 992.366 97.1444C990.474 102.561 986.598 107.791 983.691 112.747C978.284 121.968 973.182 131.369 967.813 140.614C963.136 148.669 955.912 158.416 953.291 167.341C951.208 174.433 952.395 183.554 952.616 190.937C970.042 176.354 988.824 163.013 1007.01 149.393L1085.31 90.3225L1127.6 58.6676C1134.83 53.1583 1142.45 45.9621 1150.38 41.6114C1152.5 40.4491 1154 40.09 1156.27 40.7607C1157.72 42.8511 1158.11 45.0052 1158.4 47.482C1159.82 59.8356 1157.82 76.2381 1157.34 88.902L1153.96 178.232L1143.46 484.427L1138.5 642.713C1137.8 663.852 1138.52 689.042 1136.58 709.649C1136.39 711.664 1135.92 712.98 1134.66 714.552C1132.72 715.103 1131.77 714.958 1129.88 714.199C1113.81 707.764 1096.04 697.676 1080.32 689.936C1037.54 668.873 995.191 646.874 952.61 625.407L952.368 661.768C966.173 666.578 980.391 670.952 993.82 676.726C994.67 685.968 994.138 695.687 994.255 704.989C1004.85 708.553 1063.86 729.528 1068.97 733.833C1070.78 739.215 1069.9 760.952 1067.81 766.458C1083.23 771.51 1098.41 777.748 1113.74 783.166C1127.34 787.975 1142.61 791.922 1155.39 798.438C1157.51 804.648 1154.66 823.765 1153.23 830.557C1157.82 832.689 1162.79 836.772 1167.25 839.493L1210.04 865.689Q1281.17 909.841 1353.08 952.698C1361.76 957.91 1404.59 981.938 1406.88 987.216C1380.18 987.774 1353.09 986.389 1326.37 985.923L1224.56 985.152L829.971 982.744L128.098 987.28C135.832 980.682 145.633 975.6 154.329 970.28C173.761 958.391 193.509 947.023 212.899 935.067L315.728 872.088Q336.429 859.125 357.267 846.384C365.459 841.354 373.569 835.917 382.192 831.66C381.747 820.522 381.493 809.114 382.207 797.988C410.525 788.527 438.389 777.744 466.389 767.39C466.874 755.837 466.71 744.209 466.785 732.644L542.432 703.83C541.007 696.253 541.417 688.204 541.54 680.53C554.184 672.91 569.903 667.701 583.568 661.904L583.646 626.134C529.193 653.049 475.083 680.852 420.103 706.674C415.157 708.997 407.25 714.237 401.983 712.336C401.237 711.191 400.839 710.21 400.558 708.862C398.076 696.922 398.944 679.514 398.504 666.949L395.347 580.644L384.442 268.778L379.732 122.218L378.173 68.1328C377.975 61.2364 377.226 54.3405 377.293 47.4413C377.314 45.3158 377.301 42.4797 378.635 40.7159C379.226 39.935 379.033 40.0093 379.899 39.8994C382.161 39.6121 385.847 41.8496 387.758 43.0309C394.458 47.1721 400.774 52.5032 407.103 57.2029L442.819 83.7003L584.237 191.237C584.343 185.653 585.207 178.593 583.736 173.204C581.306 164.305 575.131 155.179 570.786 146.999C562.098 130.644 553.04 114.246 544.825 97.6587C543.758 95.5034 543.813 94.3605 544.557 92.1868C545.607 91.3303 546.382 90.963 547.744 90.784C554.373 89.9129 561.741 90.6211 568.463 90.6401L609.845 90.6226C608.042 85.5088 604.414 79.1909 604.417 73.8048C604.417 73.2331 604.342 73.2559 604.868 72.8641C608.652 70.0453 656.971 71.2652 665.093 71.2644C664.095 66.5867 659.909 57.6483 661.254 53.2495C668.694 50.1675 703.803 51.3509 713.611 51.1891C712.366 46.6378 710.198 41.3441 712.172 36.7642Z"/>
	<path fill="white" transform="matrix(0.666667 0 0 0.666992 0 -6.10352e-05)" d="M389.841 62.6872C400.662 67.6645 418.444 82.0146 429.25 89.4104C482.009 125.521 535.487 162.336 584.208 203.812C584.988 279.517 584.21 355.304 584.017 431.015L583.799 615.035C568.634 624.595 550.15 631.151 533.705 638.383C503.562 651.638 473.218 664.784 443.503 678.964C442.079 636.089 442.267 592.98 441.709 550.071C477.677 548.406 513.54 544.559 549.51 542.932C549.621 549.16 549.422 555.42 549.35 561.649C530.666 563.296 511.961 565.945 493.323 568.115L461.462 571.983C460.854 583.611 460.63 630.066 462.87 638.551C463.334 640.305 463.302 640.555 464.84 641.467C467.404 641.51 469.709 641.151 472.164 640.416C483.671 636.977 494.911 631.582 506.064 627.139C520.869 621.242 536.058 615.847 550.677 609.546C553.56 608.303 557.101 606.782 558.179 603.601C559.812 598.785 560.482 538.571 558.409 535.103C557.685 533.893 556.243 533.733 554.958 533.491C545.644 531.744 509.654 536.077 498.373 536.829C478.769 538.134 458.656 538.342 439.174 540.565C436.998 540.813 435.225 541.013 433.365 542.255C432.267 543.881 432.041 545.262 431.893 547.177C430.794 561.371 432.042 576.495 432.218 590.774Q432.68 636.869 433.609 682.957Q422.279 688.074 411.068 693.448C407.565 648.485 407.232 603.211 405.191 558.163Q398.064 389.328 393.87 220.395L389.841 62.6872Z"/>
	<path transform="matrix(0.666667 0 0 0.666992 0 -6.10352e-05)" d="M427.968 129.742C429.543 130.054 431.124 130.498 432.502 131.35C437.536 134.464 442.373 138.574 447.157 142.091L482.938 168.626C502.503 182.911 522.106 197.077 541.439 211.68C550.24 218.329 559.883 224.66 567.885 232.251C569.009 248.519 566.482 268.013 565.926 284.609C564.962 313.396 560.636 503.251 556.433 512.851C550.493 514.98 448.281 519.342 436.924 518.934L437.019 518.52L435.289 518.526C435.071 518.155 434.981 518.018 434.787 517.591C433.825 515.475 433.655 512.877 433.527 510.583C432.041 483.945 432.047 457.021 431.231 430.34L426.794 289.053L423.687 167.809C423.536 159.343 422.712 150.855 422.725 142.396C422.73 139.618 422.692 136.049 423.714 133.436C424.532 131.343 426.013 130.624 427.968 129.742Z"/>
	<path fill="white" transform="matrix(0.666667 0 0 0.666992 0 -6.10352e-05)" d="M436.554 256.606C438.401 257.143 438.505 257.222 439.713 258.723C439.765 260.763 439.675 262.493 440.712 264.315C445.262 267.782 453.629 266.41 459.032 266.199C459.436 272.873 459.934 279.396 461.277 285.956L481.76 285.571C482.969 292.834 483.21 300.249 484.466 307.544C492.223 307.823 499.956 307.375 507.689 306.83C508.681 312.037 507.946 320.137 511.635 324.19C514.652 327.504 527.452 325.683 532.114 325.638C533.043 331.836 531.677 341.485 534.297 346.877C538.308 350.612 548.768 349.792 554.137 350.481C554.398 369.369 552.715 388.671 551.809 407.562C547.868 407.62 543.902 407.453 539.96 407.384Q539.584 400.332 538.944 393.299C532.495 392.028 525.347 392.36 518.768 392.219C518.336 387.882 518.458 379.505 515.479 376.328C512.831 373.504 499.011 375.329 494.848 375.428C494.404 370.867 495.412 364.124 492.209 360.491C489.06 356.918 476.011 358.587 471.137 358.524C470.874 354.22 471.286 347.768 468.39 344.366C467.251 343.028 465.675 342.434 463.978 342.162C460.731 341.642 456.758 342.34 453.436 342.358C448.711 342.384 443.931 341.994 439.214 341.711C439.246 352.043 440.08 362.329 439.883 372.673C439.631 334.007 436.485 295.316 436.554 256.606Z"/>
	<path fill="white" transform="matrix(0.666667 0 0 0.666992 0 -6.10352e-05)" d="M433.418 143.756C446.402 152.171 458.851 162.572 471.404 171.724Q514.941 203.46 558.093 235.718Q556.03 264.771 555.242 293.887C554.197 294.718 553.628 294.394 552.352 294.307C546.938 289.595 548.004 272.232 546.841 264.827C537.483 264.422 527.996 265.477 518.662 266.152C518.39 260.986 518.028 255.971 517.172 250.859C511.62 250.22 505.986 250.344 500.403 250.302C500.322 243.879 500.282 237.514 499.519 231.127C489.944 230.011 479.97 230.514 470.332 230.507L469.388 213.904C458.062 213.542 446.639 213.788 435.302 213.748C434.057 190.524 433.483 167.017 433.418 143.756Z"/>
	<path fill="white" transform="matrix(0.666667 0 0 0.666992 0 -6.10352e-05)" d="M440.271 382.549C445.703 382.934 451.132 382.544 456.593 383.057C456.614 387.207 455.886 393.995 458.769 397.222C461.69 400.493 475.739 398.475 480.489 398.88C481.404 404.815 480.498 411.543 483.227 417.029C487.577 420.319 500.014 417.497 505.898 417.516C506.18 422.237 505.75 431.399 509.482 434.692C512.771 437.593 525.041 435.701 529.774 435.653C530.308 440.572 530.068 446.529 533.91 450.102C538.42 452.191 545.705 450.883 550.683 450.613C550.414 460.033 550.477 469.904 549.113 479.221C547.825 480.632 546.541 480.507 544.696 480.857C543.381 480.835 542.072 480.674 540.764 480.545C538.436 478.006 538.468 474.408 537.983 471.073C529.984 471.156 521.854 472.991 513.821 473.528L511.72 463.339C502.946 462.853 493.945 464.054 485.198 464.796C484.888 461.742 484.982 455.192 482.937 452.933C475.19 451.098 463.015 454.855 455.091 456.279C455.043 451.739 455.873 446.305 452.666 442.797C449.51 441.376 445.204 442.163 441.808 442.391C441.64 422.451 440.64 402.492 440.271 382.549Z"/>
	<path fill="white" transform="matrix(0.666667 0 0 0.666992 0 -6.10352e-05)" d="M1143.46 64.1374C1144.17 64.279 1144.63 64.582 1145.25 64.933C1146.8 79.2244 1144.98 96.7605 1144.81 111.352Q1143.74 175.705 1141.68 240.034Q1137.03 396.102 1130.59 552.107C1128.75 597.942 1127.93 643.922 1125.55 689.717C1125.45 691.716 1125.22 693.208 1124.26 694.995C1120.57 691.035 1106.08 685.472 1100.67 683.602C1101.11 682.717 1101.42 682.098 1101.6 681.118C1102.49 676.374 1102.08 670.539 1102.2 665.643L1102.97 630.957L1104.19 575.54C1104.41 565.825 1105.06 555.895 1104.71 546.188C1104.64 544.521 1104.39 543.284 1103.4 541.896C1095.45 539.951 981.298 531.461 975.646 533.486C974.733 542.151 976.24 552.241 976.432 561.034C976.749 575.632 976.17 590.386 976.942 604.948C984.672 609.012 1064.53 641.408 1071.03 642.123C1072.41 641.444 1072.59 641.396 1073.07 639.838C1074.7 634.576 1077.2 580.396 1076.76 573.519C1076.69 572.537 1076.27 571.595 1075.82 570.735C1068.81 568.387 1058.12 568.983 1050.59 568.555C1043.99 567.125 1036.34 567.015 1029.59 566.422C1015.84 565.213 1002.03 563.822 988.249 563.244L988.364 543.119C1023.54 544.56 1058.68 547.324 1093.82 549.326C1094.16 549.909 1094.47 550.432 1094.65 551.09C1095.79 555.264 1092.75 663.087 1091.93 675.071C1091.8 676.881 1091.49 678.101 1090.57 679.672C1085.88 674.437 969.325 623.737 952.409 614.676L951.934 202.982C989.752 173.882 1028.06 144.954 1067.23 117.702L1120.57 80.7128C1127.88 75.6037 1137.19 70.3816 1143.46 64.1374Z"/>
	<path transform="matrix(0.666667 0 0 0.666992 0 -6.10352e-05)" d="M1105.87 131.651C1108.35 131.403 1110.1 131.477 1112.15 132.967C1112.93 134.149 1113.21 135.004 1113.33 136.428C1114.31 148.22 1113.02 161.011 1112.75 172.864L1111.03 245.631L1107.82 387.372C1106.79 425.489 1105.21 463.624 1104.7 501.752C1104.65 505.618 1105.66 514.69 1102.85 517.519C1101.95 518.43 1101.11 518.296 1099.87 518.324C1085.69 518.651 1071.11 517.231 1056.93 516.569Q1018.3 514.722 979.637 513.484L978.379 512.476C976.692 508.258 976.232 457.651 975.976 449.696L969.201 229.344C977.863 221.72 988.655 215.115 998.041 208.321C1024.41 189.233 1051.36 170.87 1077.93 152.059C1084.73 147.246 1101.13 137.286 1105.87 131.651Z"/>
	<path fill="white" transform="matrix(0.666667 0 0 0.666992 0 -6.10352e-05)" d="M1096.7 223.895C1098.1 223.751 1098.83 223.658 1100.16 224.224C1100.46 224.935 1100.58 225.151 1100.76 225.848C1101.86 230.041 1098.64 327.378 1097.83 339.101C1097.72 340.723 1097.42 341.854 1096.55 343.245C1086.32 343.672 1075.99 343.442 1065.74 343.489C1066.21 344.301 1066.56 344.934 1066.81 345.842C1067.81 349.506 1067.57 356.275 1065.52 359.491C1057.48 359.765 1049.35 359.502 1041.29 359.481C1041.63 360.054 1041.8 360.27 1042.02 360.86C1043.44 364.698 1043.07 372.813 1041.38 376.466C1034.2 376.804 1026.99 376.7 1019.8 376.703C1019.18 382.051 1019.32 387.482 1019.29 392.86Q1007.59 392.934 995.898 393.526C995.282 398.748 995.489 404.14 995.452 409.396L984.328 409.12Q983.07 379.031 983.112 348.916C989.275 349.049 995.456 348.974 1001.62 348.979C1002.28 341.725 1002.02 334.213 1002.12 326.921Q1013.86 327.019 1025.6 326.707C1026.02 325.913 1026.32 325.325 1026.51 324.442C1027.45 320.28 1027.74 311.551 1025.48 307.889C1034.18 308.121 1042.85 308.366 1051.55 308.012C1051.88 307.567 1052.23 307.07 1052.45 306.559C1054.14 302.626 1054.73 289.174 1052.91 285.281Q1064.96 285.823 1077.02 285.801C1077.43 285.153 1077.82 284.46 1078.03 283.719C1079.27 279.498 1079.9 266.176 1077.88 262.377L1094.37 264.768C1094.74 264.233 1094.99 263.93 1095.24 263.359C1097.22 258.823 1098.19 228.101 1096.7 223.895Z"/>
	<path fill="white" transform="matrix(0.666667 0 0 0.666992 0 -6.10352e-05)" d="M1099.39 148.151L1101.59 148.732C1102.15 156.44 1102.02 208.678 1099.13 213.231L1065.99 212.907C1066.32 213.573 1066.61 214.144 1066.73 214.887C1067.36 218.666 1067.27 225.548 1065.23 228.778Q1050.41 228.725 1035.6 228.874C1035.76 229.186 1036.03 229.682 1036.13 230.044C1037.42 234.453 1036.9 249.516 1034.7 253.35Q1025.23 253.529 1015.75 253.588L1015.6 267.376Q1003.03 267.195 990.458 267.591L990.5 291.75L980.557 291.646L978.726 233.944L1066.07 171.894C1074.31 166.049 1093.62 154.262 1099.39 148.151Z"/>
	<path fill="white" transform="matrix(0.666667 0 0 0.666992 0 -6.10352e-05)" d="M1093.83 352.926C1095.27 352.756 1096.26 352.78 1097.68 353.048C1098.82 359.927 1095.9 434.808 1094.07 440.6C1090.61 440.236 1086.94 440.379 1083.46 440.296C1083.81 440.941 1084.1 441.495 1084.27 442.219C1085.1 445.958 1085 451.422 1082.95 454.701C1074.27 453.997 1061.22 454.539 1053.42 450.895C1052.06 450.259 1050.68 449.67 1049.31 449.054C1049.35 449.23 1049.41 449.404 1049.45 449.582C1050.38 453.544 1050.81 459.326 1048.68 462.911C1039.91 461.908 1031.12 461.357 1022.31 460.796C1022.39 464.951 1022.81 469.133 1023.09 473.28C1015.52 473.283 1007.4 470.577 1000.06 472.574C997.911 474.479 997.937 475.892 997.298 478.611L986.111 478.618Q985.433 463.464 985.438 448.294L1007.15 448.533L1007.4 434.755C1014.86 434.838 1022.33 434.577 1029.78 434.407C1030.16 433.819 1030.39 433.534 1030.63 432.914C1032.23 428.904 1031.82 419.599 1030.1 415.732L1055.58 415.527C1055.95 414.928 1056.12 414.721 1056.36 414.104C1057.77 410.495 1057.69 401.969 1056.19 398.475Q1066.77 398.391 1077.34 398.782C1077.61 398.281 1077.76 398.062 1077.95 397.553C1079.23 394.091 1079.44 386.919 1077.85 383.653L1092.24 383.576C1094.85 379.121 1094.23 358.821 1093.83 352.926Z"/>
	<path fill="white" transform="matrix(0.666667 0 0 0.666992 0 -6.10352e-05)" d="M1091.7 448.88C1092.9 449.017 1093.47 449.199 1094.47 449.896C1094.89 456.524 1094.89 504.722 1093.42 509.333C1093.2 509.998 1092.44 510.916 1092.06 511.539L1091.17 511.355C1088.5 507.3 1092.83 459.378 1091.7 448.88Z"/>
	<path fill="white" transform="matrix(0.666667 0 0 0.666992 0 -6.10352e-05)" d="M632.691 197.333Q692.837 196.788 752.983 197.257L752.233 658.232L632.523 658.421L632.826 362.058L632.753 256.258C632.701 236.641 632.154 216.941 632.691 197.333Z"/>
	<path transform="matrix(0.666667 0 0 0.666992 0 -6.10352e-05)" d="M643.671 206.644Q675.475 207.248 707.283 206.873C719.946 206.76 732.724 206.26 745.374 206.846C746.869 225.723 746.052 245.202 746.112 264.143L746.194 372.221L746.2 565.07C746.14 592.223 746.787 619.511 746.171 646.648C746.13 648.472 745.983 649.706 745.216 651.385Q693.305 650.973 641.395 651.44C640.711 641.05 641.225 630.305 641.225 619.871L641.223 560.507L641.422 372.496L641.368 253.6C641.347 245.011 639.902 214.481 641.607 208.572C642.008 207.183 642.472 207.312 643.671 206.644Z"/>
	<path fill="white" transform="matrix(0.666667 0 0 0.666992 0 -6.10352e-05)" d="M724.211 215.712L736.872 215.299C738.228 235.216 737.266 255.693 737.258 275.672L737.37 395.991C733.865 395.956 730.139 395.663 726.664 396.011C723.237 396.354 719.343 398.085 717.232 400.808C717.316 401.514 717.2 402.481 717.761 402.977C721.703 406.466 727.236 406.068 732.129 406.097L732.299 489.898C728.119 489.861 723.329 489.728 719.61 491.926C717.93 492.92 717.788 493.019 717.351 494.903C717.706 495.401 718.072 495.889 718.509 496.32C722.956 500.708 731.864 499.725 737.572 499.618C738.069 518.618 737.447 537.672 737.472 556.68C737.509 585.336 737.987 613.963 737.21 642.614L694.125 642.243L650.462 642.211C649.814 596.624 650.499 550.937 650.65 505.341C650.97 408.908 651.536 312.317 650.484 215.89Q687.349 216.176 724.211 215.712Z"/>
	<path fill="white" transform="matrix(0.666667 0 0 0.666992 0 -6.10352e-05)" d="M876.541 196.923Q889.738 196.813 902.936 196.852L902.577 658.243L811.875 658.159L783.25 658.185Q783.43 602.317 782.911 546.451L783.304 197.311L876.541 196.923Z"/>
	<path transform="matrix(0.666667 0 0 0.666992 0 -6.10352e-05)" d="M790.519 206.966C802.493 205.939 815.123 206.733 827.159 206.754L893.997 206.972L894.365 510.786L894.195 599.911C894.195 616.888 894.764 634.056 893.988 651.011C883.471 652.342 871.365 651.224 860.695 651.217L790.649 651.261C789.983 633.313 790.551 615.116 790.535 597.142L790.479 492.872L790.519 206.966Z"/>
	<path fill="white" transform="matrix(0.666667 0 0 0.666992 0 -6.10352e-05)" d="M799.068 216.014L884.725 216.042L884.876 642.305C874.51 642.506 864.117 642.317 853.748 642.283Q826.292 642.206 798.837 642.466C800.562 595.007 799.257 546.998 799.291 499.479C803.06 499.48 807.747 499.995 811.361 498.875C814.077 498.034 816.587 496.893 817.928 494.285L817.109 492.526C812.924 489.537 808.939 489.726 804.005 489.75C803.82 461.837 804.293 433.92 803.978 406.012C807.763 406.02 812.588 406.446 815.815 404.164C817.295 403.118 817.303 402.947 817.602 401.16C817.165 400.439 816.667 399.718 816.009 399.178C811.259 395.285 805.244 396.019 799.54 396.157C798.081 336.243 798.399 275.948 799.068 216.014Z"/>
	<path fill="white" transform="matrix(0.666667 0 0 0.666992 0 -6.10352e-05)" d="M609.742 174.134L926.72 173.933C927.553 239.467 927.131 305.056 927.15 370.596L927.16 658.237L911.716 658.333C910.668 647.068 911.34 635.173 911.332 623.847L911.356 557.913L911.427 309.396L911.54 237.473C911.663 221.575 912.664 205.28 911.25 189.442L911.919 189.005L911.203 189.531L911.885 188.583L911.121 188.272L911.042 187.711C910.195 187.22 909.565 187.037 908.591 186.916C895.829 185.33 871.333 186.832 857.447 186.819L805.766 186.738C796.708 186.724 787.409 186.258 778.384 186.872C776.044 187.032 774.052 187.063 772.181 188.524C769.92 194.467 771.055 266.091 771.048 278.634L771.297 505.061C771.38 523.543 772.403 653.785 770.683 658.443C768.913 659.33 768.102 659.115 766.157 659.009C764.918 657.265 764.968 655.136 764.916 653.015C764.721 645.154 765.297 637.177 765.257 629.288L765.067 539.686L765.005 286.977L764.99 225.369C764.965 214.564 766.525 198.367 763.658 188.164C761.737 186.876 760.299 186.927 758.04 186.803C743.674 186.013 728.801 186.797 714.384 186.788L623.693 186.755L623.484 658.479L609.733 658.565L609.607 297.77C609.679 256.565 609.242 215.335 609.742 174.134Z"/>
	<path fill="white" transform="matrix(0.666667 0 0 0.666992 0 -6.10352e-05)" d="M1067.59 854.08C1072.94 853.95 1078.52 853.48 1083.83 854.29C1091.49 857.403 1112.43 872.097 1120.61 877.288C1147 894.027 1173.98 910.284 1199.98 927.585C1201.69 928.722 1203.2 929.619 1204.34 931.378C1146.66 932.989 1088.77 932.902 1031.06 933.695Q991.845 934.799 952.615 934.713L917.073 885.943C910.111 876.44 902.487 866.995 896.378 856.933C913.662 855.769 931.335 855.935 948.669 855.694C988.273 855.144 1028.02 855.376 1067.59 854.08Z"/>
	<path fill="white" transform="matrix(0.666667 0 0 0.666992 0 -6.10352e-05)" d="M450.71 857.513C510.479 856.523 570.459 857.423 630.246 857.52C613.073 884.543 592.59 909.647 574.835 936.356Q545.974 936.324 517.125 935.454L336.577 933.126C349.829 921.48 367.104 912.777 381.927 903.203C405.036 888.28 427.64 872.528 450.71 857.513Z"/>
	<path fill="white" transform="matrix(0.666667 0 0 0.666992 0 -6.10352e-05)" d="M718.818 44.2169C730.252 43.6265 741.9 44.0953 753.36 44.1166L817.772 44.2487C810.943 78.8002 806.258 114.09 800.461 148.861Q799.164 156.973 797.984 165.103L739.176 165.131C733.047 124.725 724.767 84.6748 718.818 44.2169Z"/>
	<path fill="white" transform="matrix(0.666667 0 0 0.666992 0 -6.10352e-05)" d="M868.11 803.821C912.914 803.327 957.771 803.752 1002.58 803.81Q1075.88 803.481 1149.18 804.245C1152.15 809.428 1150.39 821.498 1150.86 827.804C1132.51 825.733 1108.47 827.239 1089.56 827.275C994.546 826.965 899.513 827.959 804.501 826.796Q809.825 815.368 815.608 804.166C832.784 802.78 850.841 803.924 868.11 803.821Z"/>
	<path fill="white" transform="matrix(0.666667 0 0 0.666992 0 -6.10352e-05)" d="M472.756 803.813L711.887 804.2C714.499 811.702 717.024 819.178 719.171 826.828C689.902 826.463 660.582 826.957 631.313 827.148L385.607 826.687L385.681 804.208C414.655 803.337 443.762 803.912 472.756 803.813Z"/>
	<path fill="white" transform="matrix(0.666667 0 0 0.666992 0 -6.10352e-05)" d="M780.23 667.546L892.639 667.375C906.86 667.381 928.218 665.891 941.634 668.127C954.221 670.225 971.909 677.729 984.835 681.715C985.095 688.972 985.121 696.249 985.244 703.509C965.668 704.341 945.534 703.191 925.899 703.162L792.765 703.146C789.126 691.131 784.679 679.282 780.23 667.546Z"/>
	<path fill="white" transform="matrix(0.666667 0 0 0.666992 0 -6.10352e-05)" d="M592.258 667.665L755.429 667.555C751.366 679.568 746.492 691.404 741.891 703.221L713.625 703.149Q632.163 702.651 550.705 703.56L550.604 686.982C564.385 680.357 578.746 674.826 592.258 667.665Z"/>
	<path fill="white" transform="matrix(0.666667 0 0 0.666992 0 -6.10352e-05)" d="M808.594 739.773L943.441 739.767Q1002.47 739.47 1061.49 740.301C1061.55 740.414 1061.61 740.528 1061.67 740.641C1064.07 745.117 1063.07 758.949 1063.02 764.721C1061.09 765.915 1060.29 765.672 1058.06 765.638L804.696 765.362C806.035 756.856 806.569 748.146 808.594 739.773Z"/>
	<path fill="white" transform="matrix(0.666667 0 0 0.666992 0 -6.10352e-05)" d="M474.867 739.787C557.783 741.314 640.793 739.371 723.736 740.351C724.743 748.507 725.088 756.824 725.508 765.029C695.748 765.96 665.777 765.115 635.987 765.087L474.78 764.81L474.867 739.787Z"/>
	<path fill="white" transform="matrix(0.666667 0 0 0.666992 0 -6.10352e-05)" d="M804.906 773.562L988.741 773.698L1035.48 773.871C1044.31 773.857 1054.11 772.894 1062.78 774.353C1067.43 775.134 1104.52 790.711 1109.73 793.712L1109.25 794.503C1096.97 795.492 1084.02 794.795 1071.67 794.869Q1029.87 795.126 988.07 794.791C930.389 794.441 872.7 795.444 815.018 794.792Q809.31 784.488 804.906 773.562Z"/>
	<path fill="white" transform="matrix(0.666667 0 0 0.666992 0 -6.10352e-05)" d="M472.515 773.67C504.311 773.134 536.187 773.53 567.992 773.513L722.785 773.46Q718.065 784.308 712.609 794.805C699.189 795.202 685.705 795.011 672.276 795.071L497.603 794.741C472.334 794.661 446.981 795.472 421.729 794.5C438.211 786.637 455.533 780.37 472.515 773.67Z"/>
	<path fill="white" transform="matrix(0.666667 0 0 0.666992 0 -6.10352e-05)" d="M668.27 58.569L714.495 58.594C721.529 93.7344 727.54 129.573 732.93 165.01L694.911 165.003Q682.004 111.682 668.27 58.569Z"/>
	<path fill="white" transform="matrix(0.666667 0 0 0.666992 0 -6.10352e-05)" d="M869.19 78.4999L923.942 78.589C920.985 89.6784 916.859 100.654 913.149 111.516Q905.165 135.199 896.794 158.748C896.2 160.934 895.709 162.674 894.3 164.519C885.106 166.595 858.25 165.158 847.205 165.161C853.702 136.124 861.73 107.307 869.19 78.4999Z"/>
	<path fill="white" transform="matrix(0.666667 0 0 0.666992 0 -6.10352e-05)" d="M833.324 58.8773Q850.681 58.5428 868.04 58.7382C864.729 71.1505 843.864 159.933 840.529 164.895L803.588 164.985Q812.315 111.939 821.807 59.0233L833.324 58.8773Z"/>
	<path fill="white" transform="matrix(0.666667 0 0 0.666992 0 -6.10352e-05)" d="M612.028 78.622Q639.568 78.5345 667.107 78.7385C674.485 107.29 682.737 136.046 688.263 165.017L641.304 165.093Q627.087 121.715 612.028 78.622Z"/>
	<path fill="white" transform="matrix(0.666667 0 0 0.666992 0 -6.10352e-05)" d="M545.55 712.129L737.171 712.571C734.288 718.896 730.557 724.842 727.038 730.83Q709.458 731.142 691.875 731.148L496.451 731.313C513.062 726.263 529.433 718.606 545.55 712.129Z"/>
	<path fill="white" transform="matrix(0.666667 0 0 0.666992 0 -6.10352e-05)" d="M795.563 712.641L935.786 712.441L967.706 712.531C974.17 712.512 981.027 711.84 987.408 712.915L988.044 713.025C995.012 714.2 1026.09 726.363 1032.06 730.263L1030.9 731.277C955.731 732.073 880.52 730.29 805.344 731.166C801.845 725.177 798.85 718.765 795.563 712.641Z"/>
	<path fill="white" transform="matrix(0.666667 0 0 0.666992 0 -6.10352e-05)" d="M552.266 98.4956C572.257 99.1469 592.34 98.8109 612.339 98.7197C619.857 117.926 629.997 145.34 634.911 165.09L587.501 164.987L563.252 119.921C559.532 112.929 555.175 105.836 552.266 98.4956Z"/>
	<path fill="white" transform="matrix(0.666667 0 0 0.666992 0 -6.10352e-05)" d="M936.176 173.998C938.409 173.93 940.32 173.981 942.495 174.521C944.63 184.145 943.257 200.188 943.258 210.524L943.071 294.542L943.309 658.119C941.018 658.182 938.988 658.371 936.82 657.486C934.725 645.575 936.112 626.995 936.069 614.553L935.956 516.331L936.176 173.998Z"/>
	<path fill="white" transform="matrix(0.666667 0 0 0.666992 0 -6.10352e-05)" d="M924.05 99.1831C944.063 98.5529 964.307 98.8929 984.325 99.3022C973.092 117.708 963.064 136.99 952.294 155.687L947.385 164.717C932.176 164.883 916.934 164.604 901.723 164.539Q912.094 131.59 924.05 99.1831Z"/>
	<path fill="white" transform="matrix(0.666667 0 0 0.666992 0 -6.10352e-05)" d="M593.632 174.536C595.869 174.447 597.731 174.411 599.893 175.116C601.33 179.481 600.242 194.93 600.282 200.298Q600.728 244.355 600.691 288.414L600.636 658.523C598.171 658.588 595.964 658.875 593.729 657.658C591.624 649.358 593.415 624.232 593.498 613.853L593.407 547.608L593.485 293.799Q594.034 234.168 593.632 174.536Z"/>
	<path fill="white" transform="matrix(0.666667 0 0 0.666992 0 -6.10352e-05)" d="M987.734 572.247C1005.64 574.384 1023.72 575.464 1041.67 577.287C1049.22 578.054 1057.17 578.381 1064.56 580.121C1064.64 580.244 1064.72 580.362 1064.78 580.491C1066.73 584.457 1064.89 624.946 1063.29 629.05L1062.47 629.727C1053.54 626.74 1044.95 622.47 1036.23 618.911Q1012.07 609.166 987.67 600.045C987.57 590.784 987.704 581.509 987.734 572.247Z"/>
	<path fill="white" transform="matrix(0.666667 0 0 0.666992 0 -6.10352e-05)" d="M546.523 572.025L548.356 572.046C550.664 577.192 548.889 593.56 548.754 599.69C523.808 609.445 498.379 618.664 473.871 629.453L472.401 629.242C470.469 624.41 471.131 588.86 470.999 580.666C496.212 577.876 521.225 574.113 546.523 572.025Z"/>
</svg>
